<svg xmlns="http://www.w3.org/2000/svg" viewBox="0 0 167.2 377.97"><defs><style>.cls-1{fill:#1a1a1a;}.cls-1,.cls-2,.cls-3,.cls-4{fill-rule:evenodd;}.cls-2,.cls-5{fill:#e10109;}.cls-3{fill:#fff;}.cls-4{fill:#231f20;}</style></defs><g id="Layer_2" data-name="Layer 2"><g id="_6" data-name="6"><path class="cls-1" d="M100.86,246.24v-5.18h5.35a5.66,5.66,0,1,0,0-11.31h-5.35v-3.59h29.69a36.69,36.69,0,0,0,36.65-36.64V60.75a36.69,36.69,0,0,0-36.65-36.64H36.65A36.69,36.69,0,0,0,0,60.75V189.52a36.69,36.69,0,0,0,36.65,36.64H66.34v3.59H61a5.66,5.66,0,0,0,0,11.31h5.36v5.18A5.64,5.64,0,0,0,72,251.91H95.21a5.64,5.64,0,0,0,5.65-5.67Zm-40.15-12h46a1.27,1.27,0,0,1,1.27,1.27h0a1.28,1.28,0,0,1-1.27,1.28h-46a1.28,1.28,0,0,1-1.27-1.28h0a1.27,1.27,0,0,1,1.27-1.27ZM11.32,189.52V60.75A25.34,25.34,0,0,1,36.65,35.42h93.9a25.35,25.35,0,0,1,25.33,25.33V189.52a25.37,25.37,0,0,1-25.33,25.33H36.65a25.35,25.35,0,0,1-25.33-25.33Zm66.3,36.64H89.55v3.59H77.62v-3.59Zm0,18.51v-3.61H89.55v3.61Z"/><path class="cls-2" d="M12.94,67V188.07a24.79,24.79,0,0,0,24.77,24.76h91.78a24.79,24.79,0,0,0,24.76-24.76V67Z"/><path class="cls-3" d="M46,189.07h75.1a8.68,8.68,0,0,0,8.67-8.67V124.8a8.69,8.69,0,0,0-8.67-8.65H46a8.67,8.67,0,0,0-8.65,8.65v55.6A8.68,8.68,0,0,0,46,189.07Z"/><polygon class="cls-4" points="107.17 151.36 107.17 141.52 117.1 141.52 117.1 134.98 107.17 134.98 107.17 125.1 100.73 125.1 100.73 134.98 90.81 134.98 90.81 141.52 100.73 141.52 100.73 151.36 107.17 151.36 107.17 151.36"/><path class="cls-4" d="M61.19,171.54l-1.54,4.55a8.11,8.11,0,0,1-2,3.44,4.11,4.11,0,0,1-2.93,1.19,4.66,4.66,0,0,1-3.51-1.4,4.85,4.85,0,0,1-1.37-3.54,10.14,10.14,0,0,1,.12-1.61,6.58,6.58,0,0,1,.37-1.36L62.05,141a12.09,12.09,0,0,1,3.18-5,7.58,7.58,0,0,1,9.25-.07,9.55,9.55,0,0,1,3,4.43l11.42,32.32a18.24,18.24,0,0,1,.51,1.83,7.16,7.16,0,0,1,.17,1.42,4.55,4.55,0,0,1-1.43,3.48,5.08,5.08,0,0,1-3.64,1.34,4.64,4.64,0,0,1-3.3-1.23,8.41,8.41,0,0,1-2.09-3.77l-1.26-4.18Zm2.91-9.44H74.87l-5.21-16.69L64.1,162.1Z"/><path class="cls-1" d="M83.6,0A15.47,15.47,0,1,1,68.12,15.47,15.46,15.46,0,0,1,83.6,0Zm0,6.74a8.73,8.73,0,1,1-8.73,8.73A8.73,8.73,0,0,1,83.6,6.74Z"/><path class="cls-5" d="M83.39,378c-19.23-.75-36.93-4.1-50.71-10-14.37-6.11-24.43-14.93-27.49-26.35C1.05,326.18,22,310.57,42.84,295.05,61.06,281.47,79.21,268,79.21,255.27h0c0-1,1.65-1.84,3.7-1.84s3.69.83,3.69,1.84C86.6,269.05,67.82,283,49,297.09c-20.07,15-40.25,30-36.47,44.09,2.8,10.45,11.94,18.49,25,24,12.56,5.34,28.79,8.4,46.5,9.1"/></g></g></svg>