<svg xmlns="http://www.w3.org/2000/svg" viewBox="0 0 74 60.02"><defs><style>.cls-1{isolation:isolate;}.cls-2{fill:#a3506e;}.cls-3{fill:#c66785;}.cls-4{fill:#fc9faf;}.cls-5{fill:#dcddde;mix-blend-mode:multiply;}.cls-6{fill:#8aa2aa;mix-blend-mode:overlay;}</style></defs><g class="cls-1"><g id="Layer_2" data-name="Layer 2"><g id="_1" data-name="1"><g id="_11" data-name="11"><path class="cls-2" d="M60.1,60a3.67,3.67,0,0,1-2.62-1.36c-.55-.53-.91-.86-1.39-.86a3.25,3.25,0,0,0-1,.23c-.19.07-.38.14-.57.19a7.34,7.34,0,0,1-2,.29h0c-4.17,0-6.13-4.08-7.85-7.67A16.48,16.48,0,0,0,42,46.33a33.4,33.4,0,0,0-4.16-2.1,5.44,5.44,0,0,1-2.47.58,5.76,5.76,0,0,1-3.23-1A11.93,11.93,0,0,0,31.33,46a9.86,9.86,0,0,1-1.57,3.35,7,7,0,0,1-3.33,1.82A8.21,8.21,0,0,1,24.3,54.8l-.48.6A6,6,0,0,1,22,57.13a8.57,8.57,0,0,1-2,.41,6.3,6.3,0,0,1-4.39,2.06A5.08,5.08,0,0,1,13,58.83C11,57.58,8.5,55.54,8.45,52.9v-.14l-.12-.06a8.18,8.18,0,0,1-4.14-4.19,6.56,6.56,0,0,1-.44-2.39,4.63,4.63,0,0,0-.32-1.83,3.15,3.15,0,0,0-.54-.68,5.8,5.8,0,0,1-.5-.58C1,41.21,1.63,38.78,2.3,36.86a2.38,2.38,0,0,0,.22-1.32A2.15,2.15,0,0,0,2,34.78l-.23-.24A6.46,6.46,0,0,1,.65,27.63l.25-.52a2.43,2.43,0,0,0,.45-1.57A2.29,2.29,0,0,0,1,24.9c-.11-.14-.22-.28-.32-.43A5,5,0,0,1,.58,19.7,12,12,0,0,1,3,16.58c-1.39-3.79-.14-6,1.75-8.79.1-.15.2-.3.29-.45s.2-.34.29-.5c.22-.39.43-.81.64-1.21s.43-.84.66-1.25.35-.59.5-.82l.21-.32h0L7.49,3c.13-.17.26-.34.39-.49A4.57,4.57,0,0,1,11.45.86a5.84,5.84,0,0,1,.73.05l.29,0c3.43.63,5.85,4.09,7.62,6.61l.2.3c.09.12.17.24.26.35s.17.23.26.33a24.68,24.68,0,0,0,2,2.16,18.87,18.87,0,0,1,2.14,2.45,8,8,0,0,1,1.44,4.64h.1A7.73,7.73,0,0,1,30.64,19c2.09,1.35,2.12,3.69,1.94,5.78l.35,0,.55,0a12.09,12.09,0,0,1,3.84,1.11c.3-1.52,1.1-3.62,2.13-4.12a2.66,2.66,0,0,1,1.18-.26,6.46,6.46,0,0,1,1.34.18l.5.1a2.31,2.31,0,0,0,.37,0,1.4,1.4,0,0,0,.84-.22.24.24,0,0,0,.12-.17,1.61,1.61,0,0,0,0-.45,1.89,1.89,0,0,1,.38-1.47,2,2,0,0,1,.74-.49l.73-.3c1-.37,1.54-.62,1.72-1.14a2.19,2.19,0,0,0-.09-.94,3.55,3.55,0,0,1-.08-1.66,3.33,3.33,0,0,1,.6-1.24l.2-.24.05-.05,0,0,.22-.2.26-.19.21-.14.33-.18.29-.14.22-.1.39-.16.69-.31.39-.2.15-.1.1-.07a.79.79,0,0,0,.17-.14l.16-.14a8.26,8.26,0,0,0,1-1.39,12.09,12.09,0,0,1,.86-1.22c.25-.29.49-.53.7-.75a2.46,2.46,0,0,0,1-2.1,4.71,4.71,0,0,0,0-.53,7.69,7.69,0,0,1,0-1.18C55.52,1.43,58.18,0,60.66,0A5.9,5.9,0,0,1,63,.45c2.82,1.24,4.74,4.28,6.23,7.08,1.63,3.06,1.68,4.61,1.64,7.82a1.28,1.28,0,0,0,0,.29l.23.15.07,0a5.88,5.88,0,0,1,2.66,3.77,6.33,6.33,0,0,1-.76,4.88c-.1.15-.21.29-.32.44a2.35,2.35,0,0,0-.39.63,2.44,2.44,0,0,0,.45,1.57l.26.52A6.5,6.5,0,0,1,72,34.54l-.24.25a2.4,2.4,0,0,0-.57.75,2.41,2.41,0,0,0,.22,1.32c.67,1.91,1.28,4.35-.08,6.17a5.81,5.81,0,0,1-.5.57,3.18,3.18,0,0,0-.54.69,3.75,3.75,0,0,0-.16,2.15,4.51,4.51,0,0,1-1,4,10,10,0,0,1-1.67,1.35,7.68,7.68,0,0,0-1.78,1.56,4.76,4.76,0,0,0-.77,1.87,8.75,8.75,0,0,1-.39,1.32C63.84,58.21,62,60,60.13,60Z"/><path class="cls-3" d="M72.36,28A5.69,5.69,0,0,1,71.42,34a3.85,3.85,0,0,0-1,1.28,2.93,2.93,0,0,0,.23,1.79c.63,1.8,1.16,3.95,0,5.48A9.72,9.72,0,0,0,69.59,44c-1,1.95.8,4-1,6-1.07,1.13-2.55,1.68-3.51,3-.85,1.14-.79,2.14-1.26,3.37s-2.09,3-3.65,3C58.27,59.29,57.76,57,56,57a7.18,7.18,0,0,0-1.69.46c-7.26,2-8.41-8.5-11.82-11.72-.36-.33-4.55-2.49-4.81-2.33A4.89,4.89,0,0,1,32,42.7c-1.39,1.78-1.36,4.34-2.81,6.13a6.79,6.79,0,0,1-3.37,1.66,7.33,7.33,0,0,1-2.07,3.82,9,9,0,0,1-2.05,2.16,6.85,6.85,0,0,1-1.93.31c-1.7,1.84-4.05,2.8-6.34,1.41-1.8-1.09-4.16-3-4.21-5.3A.76.76,0,0,0,8.61,52a7.41,7.41,0,0,1-3.73-3.79c-.61-1.4-.13-2.93-.77-4.25A9.8,9.8,0,0,0,3,42.58c-1.14-1.53-.6-3.68,0-5.48a2.86,2.86,0,0,0,.22-1.79,3.82,3.82,0,0,0-1-1.28A5.7,5.7,0,0,1,1.33,28c.39-.85,1-1.73.74-2.63a5,5,0,0,0-.8-1.26,4.21,4.21,0,0,1,0-4,12.62,12.62,0,0,1,2.62-3.26c-1.48-3.61-.54-5.61,1.49-8.56.11-.15.22-.32.32-.49s.2-.34.3-.52c.45-.79.85-1.65,1.3-2.45.15-.27.3-.53.47-.78l.33-.49h0L8.45,3a3.83,3.83,0,0,1,3-1.42,4.64,4.64,0,0,1,.63,0l.27,0c3.24.59,5.59,4.11,7.33,6.59l.27.38.28.36c1.42,1.79,3,3,4.06,4.54a7.54,7.54,0,0,1,1.29,5,7.19,7.19,0,0,1,4.65,1c2.17,1.4,1.69,4.14,1.46,6.5a1.06,1.06,0,0,1,.48-.48,2.29,2.29,0,0,1,1.22-.12A11,11,0,0,1,38,27.06c-.09-1,.87-4.19,1.83-4.65a4.24,4.24,0,0,1,2.56.08,2.46,2.46,0,0,0,1.8-.33,1,1,0,0,0,.39-.59c.14-.53-.14-1.19.22-1.61a1.32,1.32,0,0,1,.48-.29c1.21-.53,2.49-.79,2.87-1.89.26-.78-.38-1.83-.16-2.65a2.57,2.57,0,0,1,.46-1l.16-.18,0,0,.18-.16.21-.16.17-.11.05,0,.24-.13.25-.12.2-.09c.37-.16.75-.31,1.12-.49l.44-.23.19-.12.13-.09L52,12l.19-.17c.77-.77,1.27-1.87,1.94-2.66,1-1.13,1.93-1.56,1.9-3.35a10.83,10.83,0,0,1,0-1.61c.31-3,4.26-4.14,6.67-3.09,2.7,1.19,4.54,4.26,5.87,6.75,1.57,2.94,1.59,4.35,1.55,7.45a1.42,1.42,0,0,0,.11.68,1.52,1.52,0,0,0,.58.45,5.61,5.61,0,0,1,1.65,7.59,5.59,5.59,0,0,0-.8,1.26C71.35,26.22,72,27.1,72.36,28Z"/><path class="cls-4" d="M67.69,6.38c-.2-.35-.42-.7-.64-1a.68.68,0,0,0,0,.14A1,1,0,0,0,67.69,6.38Z"/><path class="cls-4" d="M61.34,6.19l.51.32,1.24.81a.84.84,0,0,0,.29.13.75.75,0,0,0,.46-.19l.1-.08c.31-.22.62-.44.92-.67a5.87,5.87,0,0,0,1.72-1.86,10,10,0,0,0-3.92-3.51A4.75,4.75,0,0,0,61,.76a4.39,4.39,0,0,0-.29,1.69,5.59,5.59,0,0,0,.39,1.94C61.09,4.47,61.82,6.49,61.34,6.19Z"/><path class="cls-4" d="M65.73,7.1c-.65.1-1.72.33-2,.9a1.66,1.66,0,0,0,0,1.24c.47,1.45,2.11,3.21,2.38,4.32.18.75.21,1.53.43,2.27a2.73,2.73,0,0,0,1.33,1.81A2.36,2.36,0,0,0,70.49,17a3,3,0,0,0,.34-.45l-.06,0A1.53,1.53,0,0,1,70.2,16a1.31,1.31,0,0,1-.12-.68c0-3.1,0-4.5-1.55-7.45l-.26-.48A5.13,5.13,0,0,0,65.73,7.1Z"/><path class="cls-4" d="M61,18.8c.86,1.15,1.32,1,2.6.95.78,0,2.43.46,2.82-.56.23-.59-.37-1.13-.75-1.63a6,6,0,0,1-.8-3.35A4.44,4.44,0,0,0,63.75,11a2.69,2.69,0,0,0-3.15-.17c-.94.59-1,.95-1.09,2a2.54,2.54,0,0,1-.33.92,10.21,10.21,0,0,0-.74,1.33,1.28,1.28,0,0,0-.11.61,1.51,1.51,0,0,0,.39.75C59.45,17.29,60.31,17.88,61,18.8Z"/><path class="cls-4" d="M67.38,18.89c-.88,1,.13,2.74.49,3.74a6.39,6.39,0,0,1-.48,3.52A2.08,2.08,0,0,0,67,27c0,.57.56,1,1.15,1h.49c2-.21,3.41-2.78,3.15-4.66a3.1,3.1,0,0,1-.06-1.45c.53-1.64,1.74-2.48-.63-3.23C70.14,18.35,68.18,18,67.38,18.89Z"/><path class="cls-4" d="M72,18.34l.63.16a4.74,4.74,0,0,0-1-1.38,4.21,4.21,0,0,0-.06.63.64.64,0,0,0,.12.43A.62.62,0,0,0,72,18.34Z"/><path class="cls-4" d="M57.86,17.58c-1.39.21-1.29,2.68-1.66,3.62a11.35,11.35,0,0,0-1,2.76,1.63,1.63,0,0,0,.09.93,2,2,0,0,0,.69.68,6.41,6.41,0,0,0,1.73,1l.13,0c1.8.47,2.74-1.07,2.42-2.7-.11-.57-.43-.87-.29-1.49.19-.85,1.35-1.36,1.09-2.35a6,6,0,0,0-1.67-1.76,3.58,3.58,0,0,0-1.18-.7A1.5,1.5,0,0,0,57.86,17.58Z"/><path class="cls-4" d="M72.29,24a1.42,1.42,0,0,0,0,.22l.08-.12a5.47,5.47,0,0,0,.79-3.54,1.14,1.14,0,0,0-.59.71A5,5,0,0,0,72.29,24Z"/><path class="cls-4" d="M72.36,27.94c-.19-.41-.43-.83-.6-1.25l-.16.11a3.59,3.59,0,0,0-1.12,1,.64.64,0,0,0-.1.24,1.63,1.63,0,0,0,1.7,2.05,6.47,6.47,0,0,0,.77,0A5.42,5.42,0,0,0,72.39,28Z"/><path class="cls-4" d="M65.73,28.58c-.65.1-1.72.33-2,.9a1.68,1.68,0,0,0,0,1.25c.47,1.44,2.11,3.21,2.38,4.31.18.75.21,1.54.43,2.28a2.71,2.71,0,0,0,1.33,1.8,2.37,2.37,0,0,0,2.61-.67,3.48,3.48,0,0,0,.43-.6c-.07-.26-.16-.51-.24-.75a3,3,0,0,1-.23-1.79,3.66,3.66,0,0,1,1-1.28l.2-.24a6.4,6.4,0,0,0-1.41-3.62A5.27,5.27,0,0,0,65.73,28.58Z"/><path class="cls-4" d="M64.86,35.69a4.47,4.47,0,0,0-1.11-3.22,2.72,2.72,0,0,0-3.15-.17c-.94.6-1,1-1.09,2a2.54,2.54,0,0,1-.33.92,10.21,10.21,0,0,0-.74,1.33,1.26,1.26,0,0,0-.11.6,1.5,1.5,0,0,0,.39.76c.73.87,1.59,1.45,2.27,2.37.86,1.16,1.32,1,2.6.95.78,0,2.43.47,2.82-.56.23-.58-.37-1.12-.75-1.63A6,6,0,0,1,64.86,35.69Z"/><path class="cls-4" d="M67.38,40.38c-.88,1,.13,2.73.49,3.74a6.36,6.36,0,0,1-.48,3.51,2.21,2.21,0,0,0-.36.82c0,.57.56.95,1.15,1l.21,0,.28,0,.26,0c1.19-1.8-.22-3.69.66-5.48a9.81,9.81,0,0,1,1.11-1.39,3.65,3.65,0,0,0,.67-2.34l-.24-.08C70.14,39.84,68.18,39.47,67.38,40.38Z"/><path class="cls-4" d="M72.26,32.78a5.92,5.92,0,0,0,.56-2l-.17.07C72,31.18,72.06,31.93,72.26,32.78Z"/><path class="cls-4" d="M61.34,49.16l.51.32,1.24.81a.84.84,0,0,0,.29.13.75.75,0,0,0,.46-.19l.1-.07.92-.68a5,5,0,0,0,2-2.68,6.14,6.14,0,0,0-.38-3.75c-.52-1.36-2.24-.86-3.43-.85a2,2,0,0,0-.81.11,3.14,3.14,0,0,0-1.61,3.11,5.59,5.59,0,0,0,.39,1.94C61.09,47.44,61.82,49.46,61.34,49.16Z"/><path class="cls-4" d="M61.08,41.51a6.08,6.08,0,0,0-1.67-1.76,3.33,3.33,0,0,0-1.18-.69,1.15,1.15,0,0,0-.37,0c-1.39.22-1.29,2.69-1.66,3.62a11.5,11.5,0,0,0-1,2.76,1.67,1.67,0,0,0,.09.94,2,2,0,0,0,.69.68,6.12,6.12,0,0,0,1.73,1l.13,0c1.8.47,2.74-1.08,2.42-2.7-.11-.57-.43-.88-.29-1.5C60.18,43,61.34,42.51,61.08,41.51Z"/><path class="cls-4" d="M59.41,32.46a9.06,9.06,0,0,1,1-.55,2.61,2.61,0,0,0,1.38-2.06A1.88,1.88,0,0,0,60.55,28l-.16,0a2.91,2.91,0,0,0-.93,0,4,4,0,0,1-.84.06,2.63,2.63,0,0,1-.39-.06l-.37-.11a3.48,3.48,0,0,0-1.76-.37,1.4,1.4,0,0,0-.78.48,1.22,1.22,0,0,0-.23.42,1.38,1.38,0,0,0,.26,1.32,2.72,2.72,0,0,0,1.17,2.39c.21.13.45.26.51.5A.81.81,0,0,1,57,33a2.28,2.28,0,0,0,.19,1.48,1.18,1.18,0,0,0,.64.5.82.82,0,0,0,.65,0A3,3,0,0,1,59.41,32.46Z"/><path class="cls-4" d="M63.94,28.67c.31-.22.62-.44.92-.67a5,5,0,0,0,2-2.68,6.13,6.13,0,0,0-.38-3.75c-.52-1.36-2.24-.86-3.43-.85a2,2,0,0,0-.81.11,3.12,3.12,0,0,0-1.61,3.1,5.59,5.59,0,0,0,.39,1.94c0,.09.76,2.11.28,1.8l.51.33,1.24.8a.53.53,0,0,0,.75-.05Z"/><path class="cls-4" d="M65.73,50.07c-.65.1-1.72.33-2,.9a1.66,1.66,0,0,0,0,1.24,7.39,7.39,0,0,0,.79,1.56,4.11,4.11,0,0,1,.5-.87c.84-1.13,2.08-1.7,3.1-2.58A5.14,5.14,0,0,0,65.73,50.07Z"/><path class="cls-4" d="M63.75,54a2.69,2.69,0,0,0-3.15-.17c-.94.59-1,1-1.09,2a2.54,2.54,0,0,1-.33.92A10.21,10.21,0,0,0,58.44,58a2,2,0,0,0-.11.4,2.55,2.55,0,0,0,1.79.84c1.56,0,3.13-1.63,3.65-3a15.51,15.51,0,0,0,.48-1.71A2.23,2.23,0,0,0,63.75,54Z"/><path class="cls-4" d="M59.41,54a7.76,7.76,0,0,1,1-.56,2.6,2.6,0,0,0,1.38-2,1.88,1.88,0,0,0-1.26-1.86.76.76,0,0,0-.16,0,2.91,2.91,0,0,0-.93,0,4,4,0,0,1-.84.07,2.66,2.66,0,0,1-.39-.07l-.37-.11A3.37,3.37,0,0,0,56.1,49a1.38,1.38,0,0,0-.78.47,1.44,1.44,0,0,0-.23.42,1.39,1.39,0,0,0,.26,1.33,2.71,2.71,0,0,0,1.17,2.38c.21.14.45.27.51.5a.81.81,0,0,1,0,.38A2.28,2.28,0,0,0,57.22,56a1.2,1.2,0,0,0,.64.51.82.82,0,0,0,.65,0A2.94,2.94,0,0,1,59.41,54Z"/><path class="cls-4" d="M57.86,5.09c1.8.47,2.74-1.08,2.42-2.7-.11-.57-.43-.88-.29-1.5a.49.49,0,0,1,0-.11,5.76,5.76,0,0,0-2.17.69A3.58,3.58,0,0,0,56,4.09a6.2,6.2,0,0,0,1.72,1Z"/><path class="cls-4" d="M56.52,10.64c.21.14.45.27.51.5a.81.81,0,0,1,0,.38A2.28,2.28,0,0,0,57.22,13a1.2,1.2,0,0,0,.64.51.82.82,0,0,0,.65,0,2.94,2.94,0,0,1,.9-2.49,7.76,7.76,0,0,1,1-.56,2.6,2.6,0,0,0,1.38-2.05,1.88,1.88,0,0,0-1.26-1.86l-.16,0a2.91,2.91,0,0,0-.93,0,4,4,0,0,1-.84.07,2.66,2.66,0,0,1-.39-.07l-.37-.11A3.37,3.37,0,0,0,56.1,6H56a3.15,3.15,0,0,1,0,.46,2.83,2.83,0,0,1-.78,1.55,1.43,1.43,0,0,0,.14.2A2.71,2.71,0,0,0,56.52,10.64Z"/><path class="cls-4" d="M48.14,17.58A2.67,2.67,0,0,0,49,17a4.83,4.83,0,0,0,1.08-2.62A9.65,9.65,0,0,0,50.17,13c-1,.41-1.9.83-2.23,2.11C47.74,15.88,48.26,16.83,48.14,17.58Z"/><path class="cls-4" d="M45.91,26.15a2,2,0,0,0-.37.82c0,.57.56,1,1.15,1h.49c2-.21,3.42-2.78,3.15-4.66a3.39,3.39,0,0,1-.06-1.45c.54-1.64,1.74-2.48-.63-3.23a7.14,7.14,0,0,0-1.86-.33,5.49,5.49,0,0,1-2.2,1.19c-.21,1,.51,2.3.81,3.11A6.57,6.57,0,0,1,45.91,26.15Z"/><path class="cls-4" d="M51.18,14.27c-.38,1.16-1.1,2.22-1.1,3.48a.64.64,0,0,0,.12.43.58.58,0,0,0,.31.16,6.25,6.25,0,0,1,1.43.44c.59.36.9,1.06,1.47,1.46a1.83,1.83,0,0,0,2,.06c1-.6,1.16-1.95,1.22-3.11.09-1.81.16-3.73-.71-5.32a6.35,6.35,0,0,0-2.17-2.1,13.4,13.4,0,0,1-1.5,2.08,4.25,4.25,0,0,1-1.1.76c0,.15.07.31.1.46A2.67,2.67,0,0,1,51.18,14.27Z"/><path class="cls-4" d="M39.86,27.67l.5.33,1.25.8a.64.64,0,0,0,.29.13.66.66,0,0,0,.45-.18l.11-.08c.3-.22.62-.44.92-.67a5.09,5.09,0,0,0,2-2.68A6.21,6.21,0,0,0,45,21.57a1.3,1.3,0,0,0-.47-.63,2.21,2.21,0,0,1,0,.63c-.21.84-1.33,1.06-2.19.91a4.32,4.32,0,0,0-2.56-.08,1.49,1.49,0,0,0-.49.46,4.31,4.31,0,0,0-.1,1.07,5.37,5.37,0,0,0,.39,1.94C39.61,26,40.33,28,39.86,27.67Z"/><path class="cls-4" d="M38.8,23.87l0-.09A11,11,0,0,0,38,26.36,2.42,2.42,0,0,0,38.8,23.87Z"/><path class="cls-4" d="M50.12,26.8a3.63,3.63,0,0,0-1.13,1,.85.85,0,0,0-.09.24,1.63,1.63,0,0,0,1.69,2.05,31.85,31.85,0,0,0,3.26-.18,13.43,13.43,0,0,0,1-1.87,3.67,3.67,0,0,0,.32-1c.07-.81-.55-1.4-.63-2.23-.12-1.28.48-2.35-.53-3.34-.81-.8-2.39-1.63-2.93-.17A5.21,5.21,0,0,0,50.8,24a3.94,3.94,0,0,1,.27,1.74A2.14,2.14,0,0,1,50.12,26.8Z"/><path class="cls-4" d="M46.4,39.12a2.35,2.35,0,0,0,2.6-.67,4.86,4.86,0,0,0,1.08-2.62,7.22,7.22,0,0,0-1.35-5.66,5.3,5.3,0,0,0-4.49-1.59c-.64.1-1.72.33-2,.9a1.69,1.69,0,0,0,0,1.25c.46,1.44,2.11,3.21,2.37,4.31.18.75.22,1.54.43,2.28A2.73,2.73,0,0,0,46.4,39.12Z"/><path class="cls-4" d="M43.38,35.69a4.51,4.51,0,0,0-1.11-3.22,2.72,2.72,0,0,0-3.15-.17c-.94.6-1,1-1.1,2a2.54,2.54,0,0,1-.33.92A11.53,11.53,0,0,0,37,36.55a1.25,1.25,0,0,0-.1.6,1.43,1.43,0,0,0,.39.76c.73.87,1.59,1.45,2.27,2.37.85,1.16,1.32,1,2.6.95.77,0,2.42.47,2.82-.56.22-.58-.37-1.12-.75-1.63A5.87,5.87,0,0,1,43.38,35.69Z"/><path class="cls-4" d="M49.64,40.15c-1-.31-2.94-.68-3.75.23s.14,2.73.5,3.74a6.55,6.55,0,0,1-.48,3.51,2.09,2.09,0,0,0-.37.82c0,.57.56.95,1.15,1l.22,0,.27,0c2-.21,3.42-2.77,3.15-4.65a3.4,3.4,0,0,1-.06-1.45C50.81,41.73,52,40.89,49.64,40.15Z"/><path class="cls-4" d="M53.41,41.72a1.83,1.83,0,0,0,2,.06c1-.6,1.16-1.94,1.22-3.1.09-1.81.16-3.73-.71-5.32-.69-1.24-3.09-3.26-4.71-2.49-1.07.52-.2,2.24,0,3.69a2.67,2.67,0,0,1,0,1.2c-.38,1.16-1.1,2.21-1.1,3.47a.67.67,0,0,0,.12.44.58.58,0,0,0,.31.16,5.79,5.79,0,0,1,1.43.44C52.53,40.62,52.84,41.32,53.41,41.72Z"/><path class="cls-4" d="M45,43.05c-.52-1.36-2.24-.86-3.44-.85a2,2,0,0,0-.81.11,2.58,2.58,0,0,0-1.43,1.76,27.58,27.58,0,0,1,3.17,1.71,11,11,0,0,1,1.9,2.76,4.07,4.07,0,0,0,1-1.74A6.22,6.22,0,0,0,45,43.05Z"/><path class="cls-4" d="M39.59,41.51a6,6,0,0,0-1.66-1.76,3.33,3.33,0,0,0-1.18-.69,1.21,1.21,0,0,0-.38,0c-1.38.22-1.28,2.69-1.65,3.62-.17.42-.36.82-.53,1.23a5,5,0,0,0,2.18,0,4.7,4.7,0,0,0,1.35-.51,2.15,2.15,0,0,1,.84.26C38.84,43,39.84,42.45,39.59,41.51Z"/><path class="cls-4" d="M45.17,50c1.31,2.71,2.67,5.75,4.93,7.06a7.09,7.09,0,0,0-1.37-5.43A5.19,5.19,0,0,0,45.17,50Z"/><path class="cls-4" d="M51.16,52.36c-1.07.51-.2,2.24,0,3.68a2.67,2.67,0,0,1,0,1.2c0,.1-.07.19-.1.28a5.52,5.52,0,0,0,3.27,0A7.16,7.16,0,0,1,56,57a1.7,1.7,0,0,1,.51.06,6.17,6.17,0,0,0-.68-2.26C55.18,53.6,52.78,51.58,51.16,52.36Z"/><path class="cls-4" d="M53.85,51.35a13.43,13.43,0,0,0,1-1.87,3.62,3.62,0,0,0,.32-1c.07-.82-.55-1.41-.63-2.23-.12-1.29.48-2.35-.53-3.35-.81-.8-2.39-1.62-2.93-.17a5.24,5.24,0,0,0-.33,2.74,3.9,3.9,0,0,1,.27,1.73,2.1,2.1,0,0,1-1,1.11,3.66,3.66,0,0,0-1.13,1,.92.92,0,0,0-.09.23,2.1,2.1,0,0,0,.76,1.85,2.2,2.2,0,0,0,.93.21A31.54,31.54,0,0,0,53.85,51.35Z"/><path class="cls-4" d="M36.37,26.57a2.63,2.63,0,0,0,.86.08c-.28-.15-.57-.28-.86-.4a10.24,10.24,0,0,0-1.65-.53,5.74,5.74,0,0,0,1.52.82Z"/><path class="cls-4" d="M23.58,15.83a2.73,2.73,0,0,0,1.33,1.81,1.83,1.83,0,0,0,.69.16c-.06-3.82-2.26-5.32-4.45-7.7.66,1.24,1.78,2.56,2,3.46C23.33,14.31,23.37,15.09,23.58,15.83Z"/><path class="cls-4" d="M16.54,12.81a2.54,2.54,0,0,1-.33.92,10.21,10.21,0,0,0-.74,1.33,1.28,1.28,0,0,0-.11.61,1.51,1.51,0,0,0,.39.75c.73.87,1.59,1.46,2.27,2.38.86,1.15,1.32,1,2.6.95.78,0,2.43.46,2.82-.56.23-.59-.37-1.13-.75-1.63a6,6,0,0,1-.8-3.35A4.44,4.44,0,0,0,20.78,11a2.69,2.69,0,0,0-3.15-.17C16.69,11.41,16.67,11.77,16.54,12.81Z"/><path class="cls-4" d="M25.59,18.35a1.94,1.94,0,0,0-1.18.54c-.88,1,.13,2.74.49,3.74a6.39,6.39,0,0,1-.48,3.52,2.08,2.08,0,0,0-.36.82c0,.57.56,1,1.15,1h.49c2-.21,3.41-2.78,3.15-4.66a3.24,3.24,0,0,1-.06-1.45c.48-1.47,1.49-2.3,0-3a7.9,7.9,0,0,0-3.21-.32C25.58,18.51,25.59,18.43,25.59,18.35Z"/><path class="cls-4" d="M16.44,18.27a3.58,3.58,0,0,0-1.18-.7,1.5,1.5,0,0,0-.37,0c-1.39.21-1.29,2.68-1.66,3.62a11.35,11.35,0,0,0-1,2.76,1.63,1.63,0,0,0,.09.93,2,2,0,0,0,.69.68,6.41,6.41,0,0,0,1.73,1l.13,0c1.8.47,2.74-1.07,2.42-2.7-.11-.57-.43-.87-.29-1.49.19-.85,1.35-1.36,1.09-2.35A6,6,0,0,0,16.44,18.27Z"/><path class="cls-4" d="M15.65,6.58a2.66,2.66,0,0,1-.39-.07l-.37-.11A3.37,3.37,0,0,0,13.13,6a1.38,1.38,0,0,0-.78.47,1.44,1.44,0,0,0-.23.42,1.39,1.39,0,0,0,.26,1.33,2.71,2.71,0,0,0,1.17,2.38c.21.14.45.27.51.5a.81.81,0,0,1,0,.38A2.28,2.28,0,0,0,14.25,13a1.2,1.2,0,0,0,.64.51.82.82,0,0,0,.65,0,2.94,2.94,0,0,1,.9-2.49,7.76,7.76,0,0,1,1-.56,2.6,2.6,0,0,0,1.38-2.05,1.88,1.88,0,0,0-1.26-1.86l-.16,0a2.91,2.91,0,0,0-.93,0A4,4,0,0,1,15.65,6.58Z"/><path class="cls-4" d="M29.31,24a3.94,3.94,0,0,1,.27,1.74,2.1,2.1,0,0,1-.95,1.11,3.59,3.59,0,0,0-1.12,1,.64.64,0,0,0-.1.24,2.05,2.05,0,0,0,.77,1.84,2.06,2.06,0,0,0,.93.21,32,32,0,0,0,3.26-.18A14.53,14.53,0,0,0,33.42,28a3.61,3.61,0,0,0,.31-1,3.12,3.12,0,0,0-.42-1.48,2.1,2.1,0,0,0-1.14.13,1.06,1.06,0,0,0-.48.48c.18-1.91.53-4.09-.5-5.58a1.1,1.1,0,0,0-1.54.71A5.12,5.12,0,0,0,29.31,24Z"/><path class="cls-4" d="M33.87,29.74A2.7,2.7,0,0,0,35,32.13c.2.13.44.26.51.5a1,1,0,0,1,0,.38,2.28,2.28,0,0,0,.19,1.48,1.18,1.18,0,0,0,.64.5A.82.82,0,0,0,37,35a3,3,0,0,1,.9-2.49,9.21,9.21,0,0,1,1-.55,2.6,2.6,0,0,0,1.37-2.06A1.87,1.87,0,0,0,39.07,28l-.16,0A2.91,2.91,0,0,0,38,28a4,4,0,0,1-.84.06,2.76,2.76,0,0,1-.4-.06l-.37-.11a3.46,3.46,0,0,0-1.76-.37,1.34,1.34,0,0,0-.77.48,1.1,1.1,0,0,0-.24.42A1.38,1.38,0,0,0,33.87,29.74Z"/><path class="cls-4" d="M27.24,30.17a5.27,5.27,0,0,0-4.48-1.59c-.65.1-1.72.33-2,.9a1.68,1.68,0,0,0,0,1.25c.47,1.44,2.11,3.21,2.38,4.31.18.75.22,1.54.43,2.28a2.71,2.71,0,0,0,1.33,1.8,2.37,2.37,0,0,0,2.61-.67,4.77,4.77,0,0,0,1.07-2.62A7.18,7.18,0,0,0,27.24,30.17Z"/><path class="cls-4" d="M15.75,37.91c.73.87,1.59,1.45,2.27,2.37.86,1.16,1.32,1,2.6.95.78,0,2.43.47,2.82-.56.23-.58-.37-1.12-.75-1.63a6,6,0,0,1-.8-3.35,4.47,4.47,0,0,0-1.11-3.22,2.72,2.72,0,0,0-3.15-.17c-.94.6-1,1-1.09,2a2.54,2.54,0,0,1-.33.92,10.21,10.21,0,0,0-.74,1.33,1.26,1.26,0,0,0-.11.6A1.5,1.5,0,0,0,15.75,37.91Z"/><path class="cls-4" d="M28.16,40.15c-1-.31-2.95-.68-3.75.23s.13,2.73.49,3.74a6.36,6.36,0,0,1-.48,3.51,2.21,2.21,0,0,0-.36.82c0,.57.56.95,1.15,1l.21,0,.28,0c2-.21,3.41-2.77,3.15-4.65a3.25,3.25,0,0,1-.06-1.45C29.32,41.73,30.53,40.89,28.16,40.15Z"/><path class="cls-4" d="M35.09,38.68c.1-1.81.17-3.73-.71-5.32-.68-1.24-3.08-3.26-4.7-2.49-1.08.52-.21,2.24,0,3.69a2.41,2.41,0,0,1,0,1.2c-.38,1.16-1.1,2.21-1.1,3.47a.67.67,0,0,0,.12.44.62.62,0,0,0,.31.16,5.74,5.74,0,0,1,1.44.44c.59.35.9,1,1.46,1.45a1.83,1.83,0,0,0,1.95.06C34.86,41.18,35,39.84,35.09,38.68Z"/><path class="cls-4" d="M18.37,49.16l.51.32,1.24.81a.84.84,0,0,0,.29.13.75.75,0,0,0,.46-.19l.1-.07.92-.68a5,5,0,0,0,2-2.68,6.14,6.14,0,0,0-.38-3.75c-.52-1.36-2.24-.86-3.43-.85a2,2,0,0,0-.81.11,3.14,3.14,0,0,0-1.61,3.11,5.59,5.59,0,0,0,.39,1.94C18.12,47.44,18.85,49.46,18.37,49.16Z"/><path class="cls-4" d="M18.11,41.51a6.08,6.08,0,0,0-1.67-1.76,3.33,3.33,0,0,0-1.18-.69,1.15,1.15,0,0,0-.37,0c-1.39.22-1.29,2.69-1.66,3.62a11.5,11.5,0,0,0-1,2.76,1.67,1.67,0,0,0,.09.94,2,2,0,0,0,.69.68,6.12,6.12,0,0,0,1.73,1l.13,0c1.8.47,2.74-1.08,2.42-2.7-.11-.57-.43-.88-.29-1.5C17.21,43,18.37,42.51,18.11,41.51Z"/><path class="cls-4" d="M29.65,42.7a5.14,5.14,0,0,0-.34,2.74,3.9,3.9,0,0,1,.27,1.73,2.06,2.06,0,0,1-.95,1.11,3.62,3.62,0,0,0-1.12,1,.67.67,0,0,0-.1.23,1.4,1.4,0,0,0,0,.5,6.34,6.34,0,0,0,1-.5,3,3,0,0,0,.79-.65C30.62,47,30.59,44.47,32,42.69a4.09,4.09,0,0,0,1,.75,2.31,2.31,0,0,0-.42-.57C31.76,42.07,30.19,41.25,29.65,42.7Z"/><path class="cls-4" d="M21,28.67c.31-.22.62-.44.92-.67a5,5,0,0,0,2-2.68,6.13,6.13,0,0,0-.38-3.75c-.52-1.36-2.24-.86-3.43-.85a2,2,0,0,0-.81.11,3.12,3.12,0,0,0-1.61,3.1,5.59,5.59,0,0,0,.39,1.94c0,.09.76,2.11.28,1.8l.51.33,1.24.8a.53.53,0,0,0,.75-.05Z"/><path class="cls-4" d="M22.76,50.07c-.65.1-1.72.33-2,.9a1.66,1.66,0,0,0,0,1.24,20.89,20.89,0,0,0,1.95,3.36c.35-.42.68-.89,1-1.27a7.33,7.33,0,0,0,2.05-3.73A5.3,5.3,0,0,0,22.76,50.07Z"/><path class="cls-4" d="M17.63,53.79c-.94.59-1,1-1.09,2a2.54,2.54,0,0,1-.33.92A10.21,10.21,0,0,0,15.47,58a1.28,1.28,0,0,0-.11.61,1.46,1.46,0,0,0,.05.2,5.6,5.6,0,0,0,4.35-2.08,6.07,6.07,0,0,0,1.92-.3l.15-.08a3.69,3.69,0,0,0-1-2.42A2.69,2.69,0,0,0,17.63,53.79Z"/><path class="cls-4" d="M16.44,54a7.76,7.76,0,0,1,1-.56,2.6,2.6,0,0,0,1.38-2,1.88,1.88,0,0,0-1.26-1.86.76.76,0,0,0-.16,0,2.91,2.91,0,0,0-.93,0,4,4,0,0,1-.84.07,2.66,2.66,0,0,1-.39-.07l-.37-.11A3.37,3.37,0,0,0,13.13,49a1.38,1.38,0,0,0-.78.47,1.44,1.44,0,0,0-.23.42,1.39,1.39,0,0,0,.26,1.33,2.71,2.71,0,0,0,1.17,2.38c.21.14.45.27.51.5a.81.81,0,0,1,0,.38A2.28,2.28,0,0,0,14.25,56a1.2,1.2,0,0,0,.64.51.82.82,0,0,0,.65,0A2.94,2.94,0,0,1,16.44,54Z"/><path class="cls-4" d="M13,4.09a6.12,6.12,0,0,0,1.73,1l.13,0a1.85,1.85,0,0,0,2-.51,11.62,11.62,0,0,0-2-1.77,6.45,6.45,0,0,0-2.47-1.1,3.81,3.81,0,0,0-.17.76,1.67,1.67,0,0,0,.09.94A2,2,0,0,0,13,4.09Z"/><path class="cls-4" d="M3.17,17.49l.26.15A2.34,2.34,0,0,0,6,17a4.83,4.83,0,0,0,1.08-2.62A7.2,7.2,0,0,0,5.76,8.69a3.42,3.42,0,0,0-.43-.42c-2,2.91-2.92,4.91-1.45,8.5C3.64,17,3.4,17.24,3.17,17.49Z"/><path class="cls-4" d="M2,19.19a.89.89,0,0,0,0-.36,8.25,8.25,0,0,0-.57.88A.9.9,0,0,0,2,19.19Z"/><path class="cls-4" d="M2.94,26.15a2,2,0,0,0-.37.82c0,.57.56,1,1.15,1h.49c2-.21,3.42-2.78,3.15-4.66a3.39,3.39,0,0,1-.06-1.45c.54-1.64,1.74-2.48-.63-3.23-1-.31-2.94-.67-3.75.23s.14,2.74.5,3.74A6.57,6.57,0,0,1,2.94,26.15Z"/><path class="cls-4" d="M7.11,17.75a.64.64,0,0,0,.12.43.62.62,0,0,0,.31.16A6.25,6.25,0,0,1,9,18.78c.59.36.9,1.06,1.47,1.46a1.83,1.83,0,0,0,2,.06c1-.6,1.16-1.95,1.22-3.11.09-1.81.16-3.73-.71-5.32-.69-1.24-3.09-3.26-4.71-2.48-1.07.51-.2,2.24,0,3.68a2.67,2.67,0,0,1,0,1.2C7.83,15.43,7.11,16.49,7.11,17.75Z"/><path class="cls-4" d="M2.07,25.32a1.79,1.79,0,0,1,0,.89,4.14,4.14,0,0,0,.36-.89,6.13,6.13,0,0,0-.38-3.75A1.39,1.39,0,0,0,1,20.68a4,4,0,0,0,.27,3.37A5,5,0,0,1,2.07,25.32Z"/><path class="cls-4" d="M7.15,26.8a3.63,3.63,0,0,0-1.13,1,.85.85,0,0,0-.09.24,2.07,2.07,0,0,0,.76,1.84,2.06,2.06,0,0,0,.93.21,31.85,31.85,0,0,0,3.26-.18,13.43,13.43,0,0,0,1-1.87,3.67,3.67,0,0,0,.32-1c.07-.81-.55-1.4-.63-2.23-.12-1.28.48-2.35-.53-3.34-.81-.8-2.39-1.63-2.93-.17A5.21,5.21,0,0,0,7.83,24a3.94,3.94,0,0,1,.27,1.74A2.14,2.14,0,0,1,7.15,26.8Z"/><path class="cls-4" d="M6.69,8.36a2.2,2.2,0,0,0,.93.21,31.54,31.54,0,0,0,3.26-.19,13.43,13.43,0,0,0,1-1.87,3.62,3.62,0,0,0,.32-1c.07-.82-.55-1.41-.63-2.23a10.59,10.59,0,0,1,.07-1.63,4,4,0,0,0-3.6,1.85,1.64,1.64,0,0,1,0,.73,2.1,2.1,0,0,1-.95,1.11l-.26.18-.53,1q-.19.38-.39.72A2,2,0,0,0,6.69,8.36Z"/><path class="cls-4" d="M14.25,34.49a1.18,1.18,0,0,0,.64.5.82.82,0,0,0,.65,0,3,3,0,0,1,.9-2.49,9.06,9.06,0,0,1,1-.55,2.61,2.61,0,0,0,1.38-2.06A1.88,1.88,0,0,0,17.58,28l-.16,0a2.91,2.91,0,0,0-.93,0,4,4,0,0,1-.84.06,2.63,2.63,0,0,1-.39-.06l-.37-.11a3.48,3.48,0,0,0-1.76-.37,1.4,1.4,0,0,0-.78.48,1.22,1.22,0,0,0-.23.42,1.38,1.38,0,0,0,.26,1.32,2.72,2.72,0,0,0,1.17,2.39c.21.13.45.26.51.5a.81.81,0,0,1,0,.38A2.28,2.28,0,0,0,14.25,34.49Z"/><path class="cls-4" d="M3,37.1a13.53,13.53,0,0,0-.41,1.32,2,2,0,0,0,.82.7A2.35,2.35,0,0,0,6,38.45a4.86,4.86,0,0,0,1.08-2.62,7.22,7.22,0,0,0-1.35-5.66,5.3,5.3,0,0,0-4.49-1.59l-.19,0A5.73,5.73,0,0,0,2.27,34a3.54,3.54,0,0,1,1,1.28A2.87,2.87,0,0,1,3,37.1Z"/><path class="cls-4" d="M7.36,44.83a3.4,3.4,0,0,1-.06-1.45c.54-1.65,1.74-2.49-.63-3.23-1-.31-2.94-.68-3.75.23A1.78,1.78,0,0,0,2.64,42a3.16,3.16,0,0,0,.35.59A9.22,9.22,0,0,1,4.11,44c.64,1.31.16,2.85.77,4.25a7.49,7.49,0,0,0,.46.89A4.57,4.57,0,0,0,7.36,44.83Z"/><path class="cls-4" d="M7.11,39.23a.67.67,0,0,0,.12.44.62.62,0,0,0,.31.16A5.79,5.79,0,0,1,9,40.27c.59.35.9,1,1.47,1.45a1.83,1.83,0,0,0,2,.06c1-.6,1.16-1.94,1.22-3.1.09-1.81.16-3.73-.71-5.32-.69-1.24-3.09-3.26-4.71-2.49-1.07.52-.2,2.24,0,3.69a2.67,2.67,0,0,1,0,1.2C7.83,36.92,7.11,38,7.11,39.23Z"/><path class="cls-4" d="M9,52.19a.49.49,0,0,1,.17.18,1,1,0,0,1,.08.52c.05,2.31,2.41,4.2,4.21,5.29l.25.15a7.4,7.4,0,0,0-.76-3.49C12.31,53.79,10.48,52.16,9,52.19Z"/><path class="cls-4" d="M11.93,49.48a3.62,3.62,0,0,0,.32-1c.07-.82-.55-1.41-.63-2.23-.12-1.29.48-2.35-.53-3.35-.81-.8-2.39-1.62-2.93-.17a5.24,5.24,0,0,0-.33,2.74,3.9,3.9,0,0,1,.27,1.73,2.1,2.1,0,0,1-.95,1.11,3.66,3.66,0,0,0-1.13,1,.92.92,0,0,0-.09.23,1.23,1.23,0,0,0,0,.43,7.34,7.34,0,0,0,1.84,1.63c1.05,0,2.46-.16,3.12-.19A13.43,13.43,0,0,0,11.93,49.48Z"/><path class="cls-5" d="M71.62,25.32a5.59,5.59,0,0,1,.8-1.26,5.59,5.59,0,0,0-1.65-7.58,1.57,1.57,0,0,1-.58-.47,1.4,1.4,0,0,1-.11-.68c0-3.09,0-4.5-1.55-7.44-1.33-2.5-3.17-5.56-5.87-6.75-2.41-1-6.36.05-6.67,3.09a14.48,14.48,0,0,0,0,1.61c0,1.79-.93,2.22-1.89,3.35-.67.79-1.17,1.89-1.94,2.67C51,13,49.31,13,48.41,14.16a12.38,12.38,0,0,0,7.06-2.27,23.32,23.32,0,0,0,3.68-3.75c.78-.86,1.68-2.21,2.75-2.74,1.83-.9,3,1.75,3.42,3.1A28.09,28.09,0,0,1,66.39,16c.18,4.37.34,8.71.13,13.08-.31,6.57-.46,16.52-7.77,19.53-3.14,1.29-6.31-.19-8.38-2.67C48,43,48.08,39.08,45.89,36.13s-6.46-4.65-9.9-5.42c-2.3-.51-5.09-.38-6.22,2.08-.78,1.71-.35,3.79-.55,5.61-.64,6-8.28,10.32-13.83,8.34C9.48,44.62,7.83,36.51,7,31.08A57.12,57.12,0,0,1,7,14c.59-4,1.6-9.1,4.42-12.39C8,1.62,7.12,5.69,5.37,8.21c-2,2.95-3,4.95-1.49,8.56A12.62,12.62,0,0,0,1.26,20a4.21,4.21,0,0,0,0,4,5,5,0,0,1,.8,1.26c.27.9-.35,1.78-.74,2.63A5.7,5.7,0,0,0,2.28,34a3.76,3.76,0,0,1,1,1.29A2.83,2.83,0,0,1,3,37.1c-.63,1.8-1.17,3.95,0,5.48A9.14,9.14,0,0,1,4.11,44c.64,1.32.16,2.85.77,4.25A7.45,7.45,0,0,0,8.61,52a1,1,0,0,1,.51.37,1,1,0,0,1,.08.52c.05,2.32,2.41,4.21,4.21,5.3,2.3,1.39,4.65.43,6.35-1.42a6.37,6.37,0,0,0,1.92-.3,9,9,0,0,0,2.05-2.16,7.33,7.33,0,0,0,2.07-3.82,6.71,6.71,0,0,0,3.37-1.66C30.62,47,30.59,44.48,32,42.7a4.87,4.87,0,0,0,5.73.75c.26-.16,4.45,2,4.81,2.33C45.94,49,47.08,59.53,54.35,57.5A7.23,7.23,0,0,1,56,57c1.73,0,2.24,2.25,4.09,2.23,1.56,0,3.13-1.62,3.65-3s.41-2.23,1.26-3.37c1-1.3,2.44-1.86,3.51-3,1.85-1.94.09-4,1-6a9.72,9.72,0,0,1,1.11-1.38c1.14-1.53.61-3.68,0-5.48a2.91,2.91,0,0,1-.23-1.78,3.79,3.79,0,0,1,1-1.29A5.69,5.69,0,0,0,72.36,28C72,27.1,71.35,26.22,71.62,25.32Z"/><path class="cls-5" d="M44.14,22.16a1.8,1.8,0,0,1-.41,1.23c-.39.44-1,.57-1.52.9-1.59,1.09-1.15,4-2.88,4.83a3.79,3.79,0,0,1-1.61.26,12.13,12.13,0,0,1-4.45-.54,4.1,4.1,0,0,1-2.77-3.25c-.08-1,.33-2-.05-2.95-.69-1.67-3.17-1.5-4.53-2.68-.87-.77-1.15-2-1.67-3.05a6.86,6.86,0,0,0-3.71-3.28c-1.43-.56-3.05-.4-4.35-1.29-1.49-1-2.06-2.95-2.31-4.74s-.29-3.69-1.14-5.29a3.94,3.94,0,0,0-.39-.61c3.24.59,5.59,4.11,7.33,6.59l.27.38.28.36c1.42,1.79,3,3,4.06,4.54a7.54,7.54,0,0,1,1.29,5,7.19,7.19,0,0,1,4.65,1c2.17,1.4,1.69,4.14,1.46,6.5a1.06,1.06,0,0,1,.48-.48,2.29,2.29,0,0,1,1.22-.12A11,11,0,0,1,38,27.06c-.09-1,.87-4.19,1.83-4.65a4.24,4.24,0,0,1,2.56.08A2.46,2.46,0,0,0,44.14,22.16Z"/><path class="cls-6" d="M14.46,14.42c1.22,1.86,1.72,2.4,4.46,3,3.77.85,6.57,4.34,7.4,8.11a18.48,18.48,0,0,1-1.6,11.28c-.76,1.74-1.8,3.51-3.51,4.33-2.53,1.22-5.6-.09-7.65-2A14.52,14.52,0,0,1,9,29.16a38.14,38.14,0,0,1,.14-7.71c.46-2.57-.87-5.37,0-7.75a2.61,2.61,0,0,1,3.07-1.8,3.82,3.82,0,0,1,1.68,1.65C14.09,13.87,14.28,14.16,14.46,14.42Z"/><path class="cls-6" d="M61.37,37.35A45.4,45.4,0,0,0,62,29.2a39.44,39.44,0,0,1,0-4.74c.31-2.83,1.51-5.55,1.4-8.38C63.38,14,62,11.59,60,11.85A3.74,3.74,0,0,0,57.38,14a28.09,28.09,0,0,1-1.54,3.11c-1.06,1.5-2.8,2.34-4.09,3.64a15.36,15.36,0,0,0-2.16,3.06c-1.52,2.59-3.46,5.74-2.72,8.85,1,4.18,7.81,14,12.87,8.76A7.5,7.5,0,0,0,61.37,37.35Z"/></g></g></g></g></svg>