<svg xmlns="http://www.w3.org/2000/svg" xmlns:xlink="http://www.w3.org/1999/xlink" viewBox="0 0 47.17 47.17"><defs><style>.cls-1{fill:url(#linear-gradient);}.cls-2{fill:#f8c025;}</style><linearGradient id="linear-gradient" x1="285.27" y1="24.79" x2="238.1" y2="24.79" gradientTransform="translate(-238.1 -1.2)" gradientUnits="userSpaceOnUse"><stop offset="0" stop-color="#f39c12"/><stop offset="1" stop-color="#f1c40f"/></linearGradient></defs><g id="Layer_2" data-name="Layer 2"><g id="Layer_1_copy" data-name="Layer 1 copy"><path class="cls-1" d="M23.59,0A23.59,23.59,0,1,0,47.17,23.59,23.59,23.59,0,0,0,23.59,0Zm0,44.49a20.9,20.9,0,1,1,20.9-20.9A20.92,20.92,0,0,1,23.59,44.49Z"/><path class="cls-2" d="M32,28.86a7,7,0,0,1-2.4,5.38A8.18,8.18,0,0,1,26,36v3.29a.66.66,0,0,1-.67.63H21.82a.66.66,0,0,1-.68-.63V35.92a7.6,7.6,0,0,1-6-6.87.71.71,0,0,1,.74-.73h3.43a.72.72,0,0,1,.73.59c0,.09,0,.18.05.28a2.77,2.77,0,0,0,1.43,1.93l.08.05a4,4,0,0,0,2.1.53c2.12,0,3.38-1.07,3.38-2.84,0-2.12-2.88-3.27-4.6-3.77h0c-2.57-.8-7.35-2.28-7.35-7.22a7.23,7.23,0,0,1,6-6.79V7.88a.65.65,0,0,1,.68-.62h3.54a.65.65,0,0,1,.67.62v3.5a7.18,7.18,0,0,1,5,6.13.71.71,0,0,1-.74.74h-3.5a.73.73,0,0,1-.73-.57,2.52,2.52,0,0,0-.59-1.3,2.89,2.89,0,0,0-1.9-.92c-.13,0-.27,0-.4,0H23a3.24,3.24,0,0,0-2.2.79A2.21,2.21,0,0,0,20,17.87c0,1.4,1.42,2.1,4,2.89h0C29.34,22.42,32,25.14,32,28.86Z"/></g></g></svg>