<svg xmlns="http://www.w3.org/2000/svg" viewBox="0 0 45.38 72.42"><defs><style>.cls-1{fill:#fc9faf;}.cls-2{fill:#256;}.cls-3{fill:#117baa;}.cls-4{fill:#f42a39;}.cls-5{fill:#cc192e;}.cls-6{fill:#d87c94;}.cls-7{fill:#ea8ca1;}.cls-8{fill:#dd2013;}.cls-9{fill:#c61610;}.cls-10{fill:#ff4c38;}</style></defs><g id="Layer_2" data-name="Layer 2"><g id="_1" data-name="1"><g id="_1-2" data-name="1"><path class="cls-1" d="M21.19,17.19c-4.18.11-8.57,0-12,2.36-8.52,5.8-7.37,19.54-1,23,5.6,3,12.94,3.07,19,1.64C25.74,35,24.61,25.78,21.19,17.19Z"/><path class="cls-2" d="M10.86,10.1a21.62,21.62,0,0,0-3.22,7.08c3.29-.28,7.26-.3,10.31.65.73-3.74,4.29-4.95,8-5.58A31.9,31.9,0,0,0,10.86,10.1Z"/><path class="cls-3" d="M2,12a21.4,21.4,0,0,0,0,3.58,22.32,22.32,0,0,0,.32,2.28c1.07-.19,3-.51,5.34-.71a21.62,21.62,0,0,1,3.22-7.08A38.21,38.21,0,0,0,2,12Z"/><path class="cls-3" d="M18,17.83a7.08,7.08,0,0,1,3.93,2.62,66.64,66.64,0,0,0,7.39-6.51A19.81,19.81,0,0,0,26,12.25C22.24,12.88,18.68,14.09,18,17.83Z"/><path class="cls-4" d="M32.87,7.69l1.72-3.2-4.38-3L27.73,5.07a14.48,14.48,0,0,0-2-.42L25.09,0l-5.3.13.07,4.75a19.06,19.06,0,0,0-3.37,1L14.06,2.29,9.37,4.77,11.5,8.9c-9.92,8.49,1.13,22.65,1.13,22.65a37,37,0,0,0,6.23,2c-2.89-4.42-5-9-4.66-14.53-.37-6.94,6.41-12.88,13.3-9,7.87,4.21,7.27,12,4.76,19.69A18.56,18.56,0,0,0,36,30.75C38.32,24.49,39.73,13.31,32.87,7.69Z"/><path class="cls-5" d="M27.5,10c-6.89-3.83-13.67,2.11-13.3,9-.36,5.51,1.77,10.11,4.66,14.53,2.36.48,4.56.46,4.93-1.14-6.81-10.14-10.46-19-1.6-20.57C34.1,9.7,30,28.18,30,28.18a4.92,4.92,0,0,0,2.3,1.52C34.77,22.05,35.37,14.22,27.5,10Z"/><path class="cls-6" d="M31.26,20.28A45.5,45.5,0,0,0,22,17.17l-.77,0c3.42,8.59.52,18.79,6,27a22,22,0,0,0,9-4.19C31.4,34.14,28,27.21,31.26,20.28Z"/><path class="cls-7" d="M31.26,20.28C28,27.21,31.4,34.14,36.13,40c.38-.32.75-.65,1.09-1C41.69,30,39.35,24.15,31.26,20.28Z"/><path class="cls-3" d="M44.81,13.93c-.23-.59-.54-1.33-1-2.24-20.72-7.3-31.43,18.5-31.43,18.5s.41,1.21,3.35,2.4C20.64,21.27,32.75,14.68,44.81,13.93Z"/><path class="cls-2" d="M15.77,32.59a31.33,31.33,0,0,0,8,1.8C22.58,17.77,44.88,16.08,44.88,16.08s1.16,1.07-.07-2.15C32.75,14.68,20.64,21.27,15.77,32.59Z"/><path class="cls-8" d="M21.32,51.55c6.52-6,8.62-13.7,7.05-21-2.17-.64-4.19-1.18-5.78-1.74A27.82,27.82,0,0,0,15,26.92C3.56,26.28-5.67,40.39,4.15,56.24A20.87,20.87,0,0,0,21.32,51.55Z"/><path class="cls-9" d="M43.24,40.32c-1.48-5.47-8.74-8-14.87-9.77,1.57,7.3-.53,15-7,21A20.87,20.87,0,0,1,4.15,56.24a42.36,42.36,0,0,0,7.42,8.81c2.84,2.63,4.6,6.87,8.92,7.32,6.92.73,11.65-6.27,14.08-9.64C38.78,56.85,45.36,48.15,43.24,40.32Z"/><path class="cls-10" d="M16,30.5c-4.72-2.61-10.15,2.63-11.76,6.77-3.08,8,3.81,13.89,4.45,6.51A10.17,10.17,0,0,1,9.92,39.2c1.6-2.62,4.63-2.74,6.55-4.85A2.48,2.48,0,0,0,16,30.5Z"/></g></g></g></svg>