<svg xmlns="http://www.w3.org/2000/svg" xmlns:xlink="http://www.w3.org/1999/xlink" viewBox="0 0 168.54 104.09"><defs><style>.cls-1{fill:url(#linear-gradient);}.cls-2{fill:url(#linear-gradient-2);}.cls-3{fill:url(#linear-gradient-3);}.cls-4{fill:url(#linear-gradient-4);}.cls-5{fill:#ff737d;}.cls-6{fill:url(#linear-gradient-5);}</style><linearGradient id="linear-gradient" x1="41.51" y1="-14.58" x2="65.56" y2="-14.58" gradientTransform="matrix(-0.87, -0.5, -0.5, 0.87, 70.33, 81.44)" gradientUnits="userSpaceOnUse"><stop offset="0" stop-color="#f39c12"/><stop offset="1" stop-color="#ff4b2d"/></linearGradient><linearGradient id="linear-gradient-2" x1="48.96" y1="-14.87" x2="77.96" y2="-14.87" xlink:href="#linear-gradient"/><linearGradient id="linear-gradient-3" x1="61.05" y1="-14.68" x2="84.36" y2="-14.68" xlink:href="#linear-gradient"/><linearGradient id="linear-gradient-4" x1="-23.3" y1="-3.08" x2="91.33" y2="-3.08" xlink:href="#linear-gradient"/><linearGradient id="linear-gradient-5" x1="81.18" y1="-2.74" x2="129.58" y2="-2.74" gradientTransform="translate(-21.11 23.08)" gradientUnits="userSpaceOnUse"><stop offset="0" stop-color="#d3362d"/><stop offset="1" stop-color="#ff4b2d"/></linearGradient></defs><g id="Layer_2" data-name="Layer 2"><g id="Layer_1_copy" data-name="Layer 1 copy"><path class="cls-1" d="M26.74,38.91a39.43,39.43,0,0,0-2.31-9.09,3.72,3.72,0,0,1,1.69.52,6.76,6.76,0,0,1,2,1.91c1.19,1.61,1.56,3.66,2,6.25.27,1.47.57,3.13,1.07,5a24,24,0,0,0,4.45,8c.73.93,1.53,1.87,2.39,2.82l-.06,0q-1.59-.69-3.15-1.41l-.15-.06a31.73,31.73,0,0,1-2.49-3.08A74,74,0,0,1,26.74,38.91Z"/><path class="cls-2" d="M18.16,31.93c-1.13-3-2.37-6.3-4.22-8.74a6.27,6.27,0,0,1,5.21,2.5C20.68,27.39,21.29,29,24,36.2a84.92,84.92,0,0,0,7,14.42c.11.17.24.35.38.54l-.55-.28-.43-.22q-.59-.28-1.11-.57c-.38-.2-.77-.42-1.16-.66l-.37-.24c-.27-.16-.53-.33-.79-.51l-.46-.32c-.24-.18-.48-.34-.72-.53s-.33-.25-.49-.38l-.65-.51c-1.65-3.13-4.62-10.44-5.64-13C18.66,33.28,18.41,32.62,18.16,31.93Z"/><path class="cls-3" d="M16.66,32.49c.26.7.51,1.37.76,2,0,.07,2.11,5.34,4,9.58l-.3-.31-.19-.2c-.51-.51-1-1-1.46-1.56l-.1-.11c-.2-.23-.4-.45-.59-.68l-.12-.13-.61-.71,0,0c-.44-.52-.85-1-1.24-1.52l0,0-.53-.67,0-.06c-.54-.69-1-1.32-1.42-1.87l-.05-.08-.34-.46,0,0L14,35.12a28.64,28.64,0,0,1-2.67-5.41,46.82,46.82,0,0,0-4-7.92,4.65,4.65,0,0,1,3.68.66C13.66,24.47,15.26,28.73,16.66,32.49Z"/><path class="cls-4" d="M4.42,20.86a3.12,3.12,0,0,1,.93.84,40.75,40.75,0,0,1,4.5,8.63,29.62,29.62,0,0,0,2.85,5.73,67.43,67.43,0,0,0,10.71,12,31.19,31.19,0,0,0,4.28,3c.25.15.5.29.76.42,1.51.81,3.4,1.73,5.44,2.68,2.36,1.09,4.84,2.16,7.19,3.1,9.65,3.86,11.17,3.18,11.67,3a1.3,1.3,0,0,0,.88-1.11c0-.86-.82-1.47-1.68-2a38.2,38.2,0,0,0-5.46-2.32l-.08,0a22.75,22.75,0,0,1-5.67-2.21A9.77,9.77,0,0,1,37.63,50a5.09,5.09,0,0,1-.46-.74c-.51-1-1-2.34-.23-3.14a2,2,0,0,1,1.8-.54c.49.2,2.18.72,5.11,1.61,3.24,1,7.27,2.22,9.8,3.11.82.29,1.7.57,2.64.87a47.28,47.28,0,0,1,9.61,3.91A23.58,23.58,0,0,1,70,58l.76.68c5.13,4.55,10,8.85,10,18.68a36.88,36.88,0,0,1-.35,4.37,24.35,24.35,0,0,0-.09,7.73,52.45,52.45,0,0,0,1.82,6.07c1,3,2.51,7.39,2.07,8.52-.8.22-5,0-10.44-4.17C59.55,89.05,58.86,82.82,46,75.41c-1.26-.72-2.61-1.42-4-2.2C32.1,67.47,8.36,52.07,3,33.25,2,29.88.48,22.87,0,20.61A6.41,6.41,0,0,1,4.42,20.86Z"/><path class="cls-5" d="M141.8,38.91a39.43,39.43,0,0,1,2.31-9.09,3.69,3.69,0,0,0-1.69.52,6.91,6.91,0,0,0-2,1.91c-1.18,1.61-1.55,3.66-2,6.25-.27,1.47-.57,3.13-1.07,5a24,24,0,0,1-4.45,8c-.73.93-1.53,1.87-2.39,2.82l.06,0q1.59-.69,3.15-1.41l.15-.06a33.34,33.34,0,0,0,2.49-3.08A74,74,0,0,0,141.8,38.91Z"/><path class="cls-5" d="M150.38,31.93c1.13-3,2.36-6.3,4.22-8.74a6.27,6.27,0,0,0-5.21,2.5c-1.53,1.7-2.15,3.29-4.8,10.51a84.92,84.92,0,0,1-7,14.42c-.11.17-.24.35-.38.54l.55-.28.43-.22q.58-.28,1.11-.57c.38-.2.77-.42,1.15-.66.13-.07.26-.16.38-.24s.53-.33.79-.51l.46-.32c.24-.18.48-.34.72-.53l.49-.38.65-.51c1.64-3.13,4.62-10.44,5.64-13C149.88,33.28,150.12,32.62,150.38,31.93Z"/><path class="cls-5" d="M151.88,32.49c-.26.7-.52,1.37-.76,2,0,.07-2.11,5.34-4,9.58l.3-.31.19-.2c.5-.51,1-1,1.46-1.56l.1-.11c.2-.23.4-.45.59-.68l.12-.13.61-.71,0,0c.44-.52.86-1,1.25-1.52l0,0,.52-.67,0-.06c.54-.69,1-1.32,1.42-1.87a.35.35,0,0,0,0-.08l.34-.46,0,0,.32-.44a28.64,28.64,0,0,0,2.67-5.41,46.82,46.82,0,0,1,4-7.92,4.65,4.65,0,0,0-3.68.66C154.88,24.47,153.28,28.73,151.88,32.49Z"/><path class="cls-5" d="M164.12,20.86a3.12,3.12,0,0,0-.93.84,40.75,40.75,0,0,0-4.5,8.63,29.62,29.62,0,0,1-2.85,5.73,67.43,67.43,0,0,1-10.71,12,31.81,31.81,0,0,1-4.28,3c-.25.15-.5.29-.76.42-1.52.81-3.4,1.73-5.44,2.68-2.36,1.09-4.84,2.16-7.19,3.1-9.65,3.86-11.17,3.18-11.67,3a1.3,1.3,0,0,1-.88-1.11c0-.86.82-1.47,1.68-2A38.76,38.76,0,0,1,122,54.84l.09,0a22.75,22.75,0,0,0,5.67-2.21A9.88,9.88,0,0,0,130.91,50a6.13,6.13,0,0,0,.46-.74c.51-1,1-2.34.23-3.14a2,2,0,0,0-1.8-.54c-.49.2-2.18.72-5.11,1.61-3.24,1-7.27,2.22-9.8,3.11-.82.29-1.71.57-2.65.87a47.21,47.21,0,0,0-9.6,3.91A23.58,23.58,0,0,0,98.58,58l-.76.68c-5.13,4.55-10,8.85-10,18.68a34.88,34.88,0,0,0,.35,4.37,24.35,24.35,0,0,1,.09,7.73,52.45,52.45,0,0,1-1.82,6.07c-1,2.95-2.51,7.39-2.07,8.53.8.21,5,0,10.44-4.18,14.19-10.81,14.89-17,27.74-24.45,1.25-.72,2.61-1.42,4-2.2,10-5.74,33.7-21.14,39.11-40,1-3.37,2.47-10.38,2.95-12.64A6.41,6.41,0,0,0,164.12,20.86Z"/><path class="cls-6" d="M96.18,0c-5.59,0-9.39,4.06-11.91,5.9C81.75,4.06,79.15,0,72.31,0,64,.05,60.07,6.14,60.07,14.32c0,10.74,18.33,21.42,24.2,26.34,5.64-4.83,24.2-16.34,24.2-26.34C108.47,6.14,104.5,0,96.18,0ZM64.37,10.64a.83.83,0,1,1,.82-.83A.82.82,0,0,1,64.37,10.64Zm3-2.19a1.93,1.93,0,1,1,1.93-1.93A1.93,1.93,0,0,1,67.42,8.45Z"/></g></g></svg>