<svg xmlns="http://www.w3.org/2000/svg" viewBox="0 0 67.97 61.26"><defs><style>.cls-1{fill:#c66785;}.cls-2{fill:#d87c94;}.cls-3{fill:#ad476c;}.cls-4{fill:#14b0bf;}.cls-5{fill:#f42a39;}.cls-6{fill:#fc9faf;}</style></defs><g id="Layer_2" data-name="Layer 2"><g id="_1" data-name="1"><g id="_7" data-name="7"><path class="cls-1" d="M62.94,51.46c-4.81,7.52-20.47,14.3-27.2,6l-.24-.31a12.69,12.69,0,0,1-1-1.57,12.33,12.33,0,0,1-1.16-3.6,36.4,36.4,0,0,1-.43-4c-.66-9.91-1.29-19.13-7.79-27.26a30.52,30.52,0,0,1-3.77-5.15,7.88,7.88,0,0,1-.72-4.59,14.08,14.08,0,0,1,.43-2.06A8.24,8.24,0,0,1,21.37,8c0-.1.07-.2.11-.3A10.46,10.46,0,0,1,22.33,6c1.85-3,5-4.6,8.43-5.38A29.06,29.06,0,0,1,38.85.07l.52,0L40,.16c.22,0,.44,0,.65.07l.61.07,1,.17.52.09c.18,0,.37.07.55.12.83.18,1.65.39,2.45.64l.51.16.6.21a29,29,0,0,1,2.92,1.22l.57.29.56.29.55.3.55.32c.18.1.35.21.54.33l.53.33.52.35,1,.73.5.38c.34.26.66.52,1,.8s.37.32.56.48l.09.08.28.25.94.88a34.84,34.84,0,0,1,8.17,12.67C69.38,29.77,68.22,43.18,62.94,51.46Z"/><path class="cls-2" d="M61.28,37.77a33.78,33.78,0,0,1-2.55,6.8c-.23.45-.47.89-.72,1.33a30,30,0,0,1-3,4.38q-.27.33-.54.63c-3.27,3.68-6.67,4.87-11.76,5a13.46,13.46,0,0,1-3.19-.3L39,55.46a11.7,11.7,0,0,1-5.62-3.52,36.4,36.4,0,0,1-.43-4c-.66-9.91-1.29-19.13-7.79-27.26a33.56,33.56,0,0,1-3.64-4.9,2,2,0,0,1-.13-.25,7.88,7.88,0,0,1-.72-4.59,14.08,14.08,0,0,1,.43-2.06A8.24,8.24,0,0,1,21.37,8c0-.1.07-.2.11-.3A10.46,10.46,0,0,1,22.33,6c1.85-3,5-4.6,8.43-5.38A36.79,36.79,0,0,1,38.85.07l.52,0L40,.16c.22,0,.44,0,.65.07l.61.07,1,.17.52.09c.18,0,.37.07.55.12.77.16,1.53.36,2.28.59l.17.05.51.16.6.21a29,29,0,0,1,2.92,1.22l.57.29.56.29.55.3.55.32c.18.1.35.21.54.33l.53.33.52.35,1,.73.5.38c.33.26.66.52,1,.8s.37.32.56.48l.09.08.28.25.94.88A43.17,43.17,0,0,1,61.28,37.77Z"/><path class="cls-3" d="M43,43.55c0,.52-.07,1-.12,1.56a27.59,27.59,0,0,1-.57,3.27,0,0,0,0,1,0,0,1.31,1.31,0,0,1-.06.27A28.15,28.15,0,0,1,41,54a39.45,39.45,0,0,1-3.09,3.42l-.35.36c2.77-7.61,1.76-16.18-1.11-23.74S28.91,19.7,24.32,13l.81,0,1.09,0c.15.13.29.27.44.42.82.78,1.62,1.59,2.43,2.38l1.41,1.36.37.35c.33.31.66.6,1,.9l.5.44a34.66,34.66,0,0,1,6,6.69,22,22,0,0,1,1.24,2.13c.07.12.14.25.2.38A31.46,31.46,0,0,1,43,43.55Z"/><path class="cls-4" d="M41.13,45.48l1.79-.37c0-.52.1-1,.12-1.56l-.17-.85-.08,0-1.63.33-4.93,1a30.78,30.78,0,0,0-12.51-5l4.94-.52c1.57-.16,2.16-.24,2.95-.36,3,.8,6.57,1.88,9.34,2.6l.63.17.29.07,0-.14.54-2.15-.89-.23-1-.27-4.76-1.34a9.37,9.37,0,0,0,1.86-1.23,8.62,8.62,0,0,0,1.72-2,6.22,6.22,0,0,0,.91-4l-.55.07-1.79.23a.45.45,0,0,0,0,.11c.18,2-1.39,3.76-3,4.62a17.48,17.48,0,0,1-6.63,1.56L17.54,37.34c.13-.29.25-.58.36-.89s.25-.76.35-1.12c.41-1.56.58-3,1.16-4.61,5.11-2.87,11.94-3.82,17.75-3l-.2-.51-.32-2L35.93,25Q35.46,25,35,25a29.94,29.94,0,0,0-13.59,2.17A19.54,19.54,0,0,1,24.48,24a42.88,42.88,0,0,1,6.14-4.1c.57-.33,1.15-.65,1.74-1l-.5-.44c-.33-.3-.66-.59-1-.9l-.37-.35c-.56.32-1.11.63-1.63.94-7.45,4.33-11,8-12.51,14.78a21.42,21.42,0,0,1-.69,2.68C13.43,41.93,6.32,44.23,0,47.5v2.65c4.87-2.65,10.61-4.41,14.79-8.8a2.29,2.29,0,0,1,.3,0l.16,0A28.36,28.36,0,0,1,40.36,51c.25.29.48.58.71.88l.52-.39h0c.19-.69.37-1.38.53-2.07L41.81,49c-.3-.35-.62-.7-.94-1-.69-.71-1.41-1.39-2.15-2L40,45.72Z"/><path class="cls-5" d="M41,46.79c-.32-.37-.66-.72-1-1.07-.56-.57-1.15-1.12-1.76-1.63l2.94-.61,1.69-.35-.08-.41-.39-1.91-.5.1-.32.07L41,41.1l-5.24,1.08a30.67,30.67,0,0,0-12.5-5c5.79-.6,6.57-.66,7.88-.88,3.06.82,6.74,1.93,9.55,2.66l.71.19.16-.63L42,36.86l-1.83-.48-2.49-.69L35.32,35a8.89,8.89,0,0,0,3.45-3,7.15,7.15,0,0,0,1-2.28,6.21,6.21,0,0,0,.12-1.56c-.06-.13-.13-.26-.2-.38L37.46,28a3.08,3.08,0,0,1,0,1,5.66,5.66,0,0,1-2.91,3.78,17.66,17.66,0,0,1-6.64,1.55l-9.64,1-1.19.12c.14-.29.26-.59.37-.89.71-2,.79-3.75,1.5-5.73a27.37,27.37,0,0,1,16.46-3.32l.47.06.07-.53.24-1.81A26.52,26.52,0,0,0,33.51,23a29.85,29.85,0,0,0-9,1,29,29,0,0,0-3.54,1.21,28.48,28.48,0,0,1,8.28-6.67l1.65-.95-.37-.35L29.09,15.9c-.51.29-1,.58-1.48.87C20.69,20.9,17.29,24.5,15.89,31.08a21,21,0,0,1-.69,2.68C13,39.88,6.2,42.22,0,45.37V48c4.76-2.51,10.27-4.3,14.32-8.55l.3,0,.15,0A28.27,28.27,0,0,1,40.56,49.94l0,0L41.81,49l.47-.36.2-.15-.13-.15C41.93,47.83,41.49,47.3,41,46.79Z"/><path class="cls-1" d="M43,43.55c0,.52-.07,1-.12,1.56a27.59,27.59,0,0,1-.57,3.27,0,0,0,0,1,0,0,1.31,1.31,0,0,1-.06.27A28.15,28.15,0,0,1,41,54a.8.8,0,0,0-.08.16,10.09,10.09,0,0,1-1.49,2.32c-.39.46-1.61,1.16-1.81,1.66l.29-.72a39.39,39.39,0,0,0,3-9.39c.06-.41.11-.82.15-1.22s.09-.87.11-1.31c0-.67.06-1.34,0-2,0-.14,0-.28,0-.43q0-.61-.09-1.23c0-.24,0-.48-.08-.72a2.89,2.89,0,0,0,0-.29c-.07-.62-.16-1.23-.27-1.84,0-.23-.08-.48-.13-.71-.12-.63-.26-1.26-.41-1.88-.22-.92-.48-1.82-.77-2.7-.18-.57-.38-1.13-.6-1.69s-.53-1.31-.82-1.94c-.16-.36-.33-.7-.51-1.05-.33-.65-.68-1.29-1.06-1.93s-.64-1.05-1-1.56c-.13-.19-.25-.37-.39-.56-.47-.66-1-1.31-1.49-1.95q-1-1.2-2.13-2.34l-.76-.74-1.4-1.36-.35-.36-.32-.33c-1.52-1.59-2.82-3.45-4.25-5.13a13.32,13.32,0,0,0,1.36.2,4.15,4.15,0,0,1,1.31.7,30.4,30.4,0,0,1,2.12,2.26l1.41,1.36.37.35c.33.31.66.6,1,.9l.5.44a34.66,34.66,0,0,1,6,6.69,22,22,0,0,1,1.24,2.13c.07.12.14.25.2.38A31.46,31.46,0,0,1,43,43.55Z"/><path class="cls-6" d="M58.56,43.51C58,44.06,57.5,44.56,57,45a14.23,14.23,0,0,0-2.57,3.22c-.89,1.45-1.17.49-.82-.9a7.61,7.61,0,0,1,1.49-2.78c.77-.94,1.78-1.82,2.61-3a5.19,5.19,0,0,0,.91-2,3.9,3.9,0,0,0-.3-2.24c-.63-1.49-2-2.75-2.75-4.48a4.49,4.49,0,0,1-.3-2.85,23.64,23.64,0,0,1,.92-2.73,4,4,0,0,0,.16-2.68,2.75,2.75,0,0,0-.74-1.1,8.16,8.16,0,0,0-1.11-.89,7.66,7.66,0,0,1-2.21-2,6.5,6.5,0,0,1-.78-2.87,12.75,12.75,0,0,0-.4-2.76,1.66,1.66,0,0,0-.12-.31,1.57,1.57,0,0,0-.13-.29c-.06-.09-.1-.18-.17-.27l-.21-.28a3.53,3.53,0,0,0-1-.76c-.78-.4-1.65-.61-2.49-.94a5.93,5.93,0,0,1-1.2-.62l-.28-.21-.25-.25A1.71,1.71,0,0,1,45,10.8a.81.81,0,0,1-.11-.13l-.08-.15a6.24,6.24,0,0,1-.6-2.44A8.32,8.32,0,0,0,44,7a3.35,3.35,0,0,0-.43-1,4.83,4.83,0,0,0-3.14-1.93,8.59,8.59,0,0,0-3,0,19,19,0,0,0-1.87.43h0l-.53.14a3.09,3.09,0,0,1,.48-.66,6.23,6.23,0,0,1,3.15-1.53C41.28,2,44.57,2,46.33,4.25c1.16,1.47,2.83,2.44,4,3.89.56.69.8,1.6,1.36,2.24s1.6,1.07,2.14,2a13.32,13.32,0,0,0,1.36,2.25c1.78,2.16,1,4.55,2.11,6.91a16.22,16.22,0,0,1,1.3,2.73c.28,1.17.13,2,.84,3.15C61.2,30.17,60.64,33,61.32,36S60.67,41.31,58.56,43.51Z"/><path class="cls-1" d="M59.54,39.81A5.32,5.32,0,0,1,59.11,41a11.38,11.38,0,0,1-1.77,2.15,22.09,22.09,0,0,0-2.9,2.73A3.33,3.33,0,0,0,54,49.59a2.63,2.63,0,0,1-.58-1.31,6,6,0,0,1,1.15-3.89c1-1.58,2.34-3.22,2.1-5.08-.27-2.19-2.61-3.63-3.09-5.79-.64-2.89,2.21-6.11.65-8.62-.8-1.28-2.53-1.81-3.22-3.16-.8-1.56.11-3.63-.8-5.13-.77-1.28-2.46-1.55-3.74-2.31a9.38,9.38,0,0,1-3.26-4,15.33,15.33,0,0,0-2.82-4.4,4.31,4.31,0,0,0-4.81-1,1.77,1.77,0,0,1,.08-.31,2.64,2.64,0,0,1,.23-.61c.4-.12.91-.27,1.54-.41a9.24,9.24,0,0,1,3.2-.16,6.49,6.49,0,0,1,2,.63,4.69,4.69,0,0,1,1.78,1.56,3.39,3.39,0,0,1,.32.56c0,.11.09.19.14.32s.06.16.09.28A10.74,10.74,0,0,1,45.19,8,5.46,5.46,0,0,0,45.72,10l.05.08v0h0l.05.07c.06.06.14.19.19.21l.15.13.2.14a4.65,4.65,0,0,0,1,.48,22,22,0,0,1,2.62.95c.11.05.23.13.35.2a2.33,2.33,0,0,1,.35.23c.11.09.23.17.33.27l.16.16.08.07,0,0,.09.1.21.27c.08.11.17.27.25.41a3,3,0,0,1,.2.4,3.33,3.33,0,0,1,.16.4,13.78,13.78,0,0,1,.46,3A5.39,5.39,0,0,0,53.28,20a7,7,0,0,0,1.91,1.67,9.18,9.18,0,0,1,1.26,1,5,5,0,0,1,.59.69l.25.41.11.22,0,.11,0,.06,0,.09v0l.1.35c0,.14.06.35.09.52a4.19,4.19,0,0,1,0,.94,7.6,7.6,0,0,1-.38,1.61,22.42,22.42,0,0,0-.9,2.58,3.2,3.2,0,0,0-.08,1.1,2.48,2.48,0,0,0,.09.53,4.75,4.75,0,0,0,.18.53c.61,1.45,1.94,2.75,2.66,4.52A4.87,4.87,0,0,1,59.54,39.81Z"/><path class="cls-3" d="M59.57,39.78A5.32,5.32,0,0,1,59.14,41a6.3,6.3,0,0,1-.69,1.13A36.57,36.57,0,0,1,55.7,45a6.79,6.79,0,0,0-1.48,2.45,3.06,3.06,0,0,0-.08,1.75v0a1.68,1.68,0,0,1,.08.24l.09.18.07.15L54,50.1l-.1-.17a1.8,1.8,0,0,0-.1-.18v0l-.13-.3a3.43,3.43,0,0,1-.17-.89,1.13,1.13,0,0,1,0-.26,3.65,3.65,0,0,1,.13-.94,7.61,7.61,0,0,1,1.49-2.78c.77-.94,1.78-1.82,2.61-3a5.19,5.19,0,0,0,.91-2,3.9,3.9,0,0,0-.3-2.24c-.63-1.49-2-2.75-2.75-4.48a4.49,4.49,0,0,1-.3-2.85,23.64,23.64,0,0,1,.92-2.73,4,4,0,0,0,.16-2.68,2.75,2.75,0,0,0-.74-1.1,8.16,8.16,0,0,0-1.11-.89,7.66,7.66,0,0,1-2.21-2,6.5,6.5,0,0,1-.78-2.87,12.75,12.75,0,0,0-.4-2.76,1.66,1.66,0,0,0-.12-.31,1.57,1.57,0,0,0-.13-.29c-.06-.09-.1-.18-.17-.27l-.21-.28a3.53,3.53,0,0,0-1-.76c-.78-.4-1.65-.61-2.49-.94a5.93,5.93,0,0,1-1.2-.62l-.28-.21-.25-.25A1.71,1.71,0,0,1,45,10.8a.81.81,0,0,1-.11-.13l-.08-.15a6.24,6.24,0,0,1-.6-2.44A8.32,8.32,0,0,0,44,7a3.35,3.35,0,0,0-.43-1,4.83,4.83,0,0,0-3.14-1.93,8.59,8.59,0,0,0-3,0,19,19,0,0,0-1.87.43h0l-.53.14-.14,0-.12-.46.66-.22.08,0,.32-.1c.4-.13.91-.28,1.54-.42a9.46,9.46,0,0,1,3.2-.17,6.58,6.58,0,0,1,2,.63,4.74,4.74,0,0,1,1.78,1.55,4,4,0,0,1,.33.57c0,.11.09.19.13.31s.06.17.09.29A7.53,7.53,0,0,1,45.14,8,5.64,5.64,0,0,0,45.68,10l0,.08h0l0,.06a1.51,1.51,0,0,0,.19.22l.15.13.2.14a5,5,0,0,0,1,.47,24.35,24.35,0,0,1,2.61.94l.36.2c.11.07.23.14.35.23l.33.27.16.16.08.07,0,0,.09.1.21.27c.08.11.18.27.26.41s.13.27.2.4.11.27.15.4a13.84,13.84,0,0,1,.47,3A5.26,5.26,0,0,0,53.27,20a6.86,6.86,0,0,0,1.91,1.66,10,10,0,0,1,1.26,1,4.46,4.46,0,0,1,.59.69c.09.13.17.27.26.41l.1.22,0,.11,0,0s0,0,0,.1v0l.11.35c0,.14.06.34.09.52a4.1,4.1,0,0,1,0,.93,7.45,7.45,0,0,1-.38,1.61,23,23,0,0,0-.89,2.59,3.2,3.2,0,0,0-.08,1.1,2.48,2.48,0,0,0,.09.53c0,.16.11.35.18.53.61,1.45,2,2.75,2.67,4.52A4.91,4.91,0,0,1,59.57,39.78Z"/><path class="cls-6" d="M40.56,13.86a3.89,3.89,0,0,0-.32-.39c-1.48-1.56-4.1-1.17-5.93-2.3a11.9,11.9,0,0,1-2.71-3c-1.48-1.85-4.77-3-5.67.14-.57,2,1.34,4.09,2.54,5.46,2.65,3,6.16,5.05,9,7.86,3.89,3.89,5.69,9.54,6.41,14.86a45.69,45.69,0,0,1,.25,8.1c-.07,1.83.71,7.16-.32,8.44C47,49,50.47,44.1,49.3,39.05c-.6-2.58-2.38-4.92-2.25-7.56.12-2.25,1.62-4.56.68-6.61s-4-2.53-5.37-4.5S41.81,15.68,40.56,13.86Z"/><path class="cls-6" d="M45.68,1.27c-8-.38-17.84-.3-22.27,7.06a13.35,13.35,0,0,0-1.91,7.41,2,2,0,0,1-.13-.25,7.88,7.88,0,0,1-.72-4.59,14.08,14.08,0,0,1,.43-2.06A8.24,8.24,0,0,1,21.37,8c0-.1.07-.2.11-.3A10.46,10.46,0,0,1,22.33,6c1.85-3,5-4.6,8.43-5.38A36.79,36.79,0,0,1,38.85.07l.52,0L40,.16c.22,0,.44,0,.65.07l.61.07,1,.17.52.09c.18,0,.37.07.55.12C44.17.84,44.93,1,45.68,1.27Z"/></g></g></g></svg>