<svg xmlns="http://www.w3.org/2000/svg" xmlns:xlink="http://www.w3.org/1999/xlink" viewBox="0 0 168.54 107.89"><defs><style>.cls-1{fill:url(#linear-gradient);}.cls-2{fill:url(#linear-gradient-2);}.cls-3{fill:url(#linear-gradient-3);}.cls-4{fill:url(#linear-gradient-4);}.cls-5{fill:url(#linear-gradient-5);}.cls-6{fill:#ff737d;}.cls-7{fill:url(#linear-gradient-6);}.cls-8{fill:#f8c025;}</style><linearGradient id="linear-gradient" x1="319.67" y1="24.79" x2="272.5" y2="24.79" gradientTransform="translate(-238.1 -1.2)" gradientUnits="userSpaceOnUse"><stop offset="0" stop-color="#f39c12"/><stop offset="1" stop-color="#f1c40f"/></linearGradient><linearGradient id="linear-gradient-2" x1="59.11" y1="-6.06" x2="83.16" y2="-6.06" gradientTransform="matrix(-0.87, -0.5, -0.5, 0.87, 89.83, 86.67)" gradientUnits="userSpaceOnUse"><stop offset="0" stop-color="#f39c12"/><stop offset="1" stop-color="#ff4b2d"/></linearGradient><linearGradient id="linear-gradient-3" x1="66.56" y1="-6.36" x2="95.56" y2="-6.36" xlink:href="#linear-gradient-2"/><linearGradient id="linear-gradient-4" x1="78.64" y1="-6.16" x2="101.96" y2="-6.16" xlink:href="#linear-gradient-2"/><linearGradient id="linear-gradient-5" x1="-5.7" y1="5.43" x2="108.92" y2="5.43" xlink:href="#linear-gradient-2"/><linearGradient id="linear-gradient-6" x1="114.1" y1="2.63" x2="162.5" y2="2.63" gradientTransform="translate(-21.11 23.08)" gradientUnits="userSpaceOnUse"><stop offset="0" stop-color="#d3362d"/><stop offset="1" stop-color="#ff4b2d"/></linearGradient></defs><g id="Layer_2" data-name="Layer 2"><g id="Layer_1_copy" data-name="Layer 1 copy"><path class="cls-1" d="M58,0A23.59,23.59,0,1,0,81.57,23.59,23.59,23.59,0,0,0,58,0Zm0,44.49a20.9,20.9,0,1,1,20.9-20.9A20.92,20.92,0,0,1,58,44.49Z"/><path class="cls-2" d="M26.74,42.71a39.56,39.56,0,0,0-2.31-9.09,3.72,3.72,0,0,1,1.69.52,6.76,6.76,0,0,1,2,1.91c1.19,1.61,1.56,3.66,2,6.25.27,1.47.57,3.13,1.07,5a24,24,0,0,0,4.45,8c.73.93,1.53,1.87,2.39,2.82l-.06,0c-1.06-.46-2.11-.93-3.15-1.4l-.15-.07a31.83,31.83,0,0,1-2.49-3.07A74.7,74.7,0,0,1,26.74,42.71Z"/><path class="cls-3" d="M18.16,35.74c-1.13-3-2.37-6.31-4.22-8.75a6.27,6.27,0,0,1,5.21,2.5c1.53,1.7,2.14,3.29,4.8,10.51a85,85,0,0,0,7,14.43l.38.53-.55-.28-.43-.21-1.11-.57L28,53.24,27.66,53c-.27-.16-.53-.33-.79-.51l-.46-.32c-.24-.17-.48-.34-.72-.53s-.33-.25-.49-.38l-.65-.51c-1.65-3.13-4.62-10.44-5.64-13C18.66,37.08,18.41,36.42,18.16,35.74Z"/><path class="cls-4" d="M16.66,36.29c.26.7.51,1.37.76,2,0,.07,2.11,5.34,4,9.58l-.3-.31-.19-.19c-.51-.52-1-1-1.46-1.56l-.1-.12L18.78,45l-.12-.14-.61-.71,0-.05c-.44-.52-.85-1-1.24-1.52l0-.05-.53-.67,0-.06c-.54-.69-1-1.32-1.42-1.87l-.05-.08-.34-.45,0-.06L14,38.92a28.64,28.64,0,0,1-2.67-5.41,47.19,47.19,0,0,0-4-7.92,4.65,4.65,0,0,1,3.68.66C13.66,28.28,15.26,32.54,16.66,36.29Z"/><path class="cls-5" d="M4.42,24.67a3,3,0,0,1,.93.83,40.75,40.75,0,0,1,4.5,8.63,29.62,29.62,0,0,0,2.85,5.73,67.43,67.43,0,0,0,10.71,12,31.19,31.19,0,0,0,4.28,3l.76.43c1.51.8,3.4,1.72,5.44,2.67,2.36,1.09,4.84,2.16,7.19,3.1,9.65,3.86,11.17,3.18,11.67,3a1.29,1.29,0,0,0,.88-1.11c0-.85-.82-1.47-1.68-2a38.2,38.2,0,0,0-5.46-2.32l-.08,0a23,23,0,0,1-5.67-2.2,9.92,9.92,0,0,1-3.11-2.63,5.09,5.09,0,0,1-.46-.74c-.51-1-1-2.34-.23-3.14a2,2,0,0,1,1.8-.54c.49.2,2.18.72,5.11,1.62,3.24,1,7.27,2.21,9.8,3.1.82.29,1.7.57,2.64.87a47.28,47.28,0,0,1,9.61,3.91A23.58,23.58,0,0,1,70,61.78l.76.68c5.13,4.55,10,8.86,10,18.68a36.88,36.88,0,0,1-.35,4.37,24.35,24.35,0,0,0-.09,7.73,52.45,52.45,0,0,0,1.82,6.07c1,3,2.51,7.39,2.07,8.53-.8.21-5,0-10.44-4.18C59.55,92.85,58.86,86.62,46,79.21c-1.26-.72-2.61-1.42-4-2.19C32.1,71.27,8.36,55.87,3,37.05,2,33.69.48,26.67,0,24.41A6.36,6.36,0,0,1,4.42,24.67Z"/><path class="cls-6" d="M141.8,42.71a39.43,39.43,0,0,1,2.31-9.09,3.69,3.69,0,0,0-1.69.52,6.91,6.91,0,0,0-2,1.91c-1.18,1.61-1.55,3.66-2,6.25-.27,1.47-.57,3.13-1.07,5a24,24,0,0,1-4.45,8c-.73.93-1.53,1.87-2.39,2.82l.06,0c1.06-.46,2.11-.93,3.15-1.4l.15-.07a34.88,34.88,0,0,0,2.49-3.07A74.7,74.7,0,0,0,141.8,42.71Z"/><path class="cls-6" d="M150.38,35.73c1.13-3,2.36-6.3,4.22-8.74a6.27,6.27,0,0,0-5.21,2.5c-1.53,1.7-2.15,3.29-4.8,10.51a84.92,84.92,0,0,1-7,14.42c-.11.17-.24.35-.38.54l.55-.28.43-.21,1.11-.57c.38-.21.77-.43,1.15-.66l.38-.25c.26-.16.53-.33.79-.51l.46-.32c.24-.17.48-.34.72-.53l.49-.38.65-.51c1.64-3.13,4.62-10.44,5.64-13C149.88,37.08,150.12,36.42,150.38,35.73Z"/><path class="cls-6" d="M151.88,36.29c-.26.7-.52,1.37-.76,2,0,.07-2.11,5.34-4,9.58l.3-.31a1.8,1.8,0,0,0,.19-.2c.5-.51,1-1,1.46-1.55l.1-.12.59-.67.12-.14.61-.71,0-.05c.44-.52.86-1,1.25-1.52l0-.05.52-.67,0-.06c.54-.69,1-1.32,1.42-1.87a.35.35,0,0,0,0-.08l.34-.46,0,0,.32-.44a28.64,28.64,0,0,0,2.67-5.41,47.19,47.19,0,0,1,4-7.92,4.65,4.65,0,0,0-3.68.66C154.88,28.28,153.28,32.54,151.88,36.29Z"/><path class="cls-6" d="M164.12,24.67a3,3,0,0,0-.93.83,40.75,40.75,0,0,0-4.5,8.63,29.62,29.62,0,0,1-2.85,5.73,67.43,67.43,0,0,1-10.71,12,31.81,31.81,0,0,1-4.28,3l-.76.43c-1.52.8-3.4,1.72-5.44,2.67-2.36,1.09-4.84,2.16-7.19,3.1-9.65,3.86-11.17,3.18-11.67,3a1.29,1.29,0,0,1-.88-1.11c0-.85.82-1.47,1.68-2A38.76,38.76,0,0,1,122,58.64l.09,0a23,23,0,0,0,5.67-2.2,10,10,0,0,0,3.11-2.63,6.13,6.13,0,0,0,.46-.74c.51-1,1-2.34.23-3.14a2,2,0,0,0-1.8-.54c-.49.2-2.18.72-5.11,1.62-3.24,1-7.27,2.21-9.8,3.1-.82.29-1.71.57-2.65.87a47.21,47.21,0,0,0-9.6,3.91,23.58,23.58,0,0,0-4.06,2.91l-.76.68c-5.13,4.55-10,8.85-10,18.68a34.88,34.88,0,0,0,.35,4.37,24.35,24.35,0,0,1,.09,7.73,52.45,52.45,0,0,1-1.82,6.07c-1,3-2.51,7.39-2.07,8.53.8.21,5,0,10.44-4.18,14.19-10.81,14.89-17,27.74-24.45,1.25-.72,2.61-1.42,4-2.19,10-5.75,33.7-21.15,39.11-40,1-3.36,2.47-10.38,2.95-12.64A6.36,6.36,0,0,0,164.12,24.67Z"/><path class="cls-7" d="M129.1,5.38c-5.6,0-9.39,4.06-11.91,5.9-2.53-1.84-5.13-5.94-12-5.9C96.86,5.43,93,11.52,93,19.7c0,10.74,18.33,21.42,24.2,26.34,5.63-4.84,24.2-16.34,24.2-26.34C141.39,11.52,137.42,5.38,129.1,5.38ZM97.29,16a.82.82,0,1,1,0-1.64.82.82,0,1,1,0,1.64Zm3-2.18a1.94,1.94,0,1,1,1.94-1.93A1.92,1.92,0,0,1,100.33,13.83Z"/><path class="cls-8" d="M66.42,28.86A7,7,0,0,1,64,34.24,8.13,8.13,0,0,1,60.43,36v3.29a.66.66,0,0,1-.67.63H56.22a.67.67,0,0,1-.68-.63V35.92a7.6,7.6,0,0,1-6-6.87.71.71,0,0,1,.74-.73h3.43a.71.71,0,0,1,.73.59c0,.09,0,.18.05.28A2.77,2.77,0,0,0,56,31.12l.08.05a4,4,0,0,0,2.1.53c2.12,0,3.38-1.07,3.38-2.84,0-2.12-2.88-3.27-4.6-3.77h0c-2.57-.8-7.35-2.28-7.35-7.22a7.23,7.23,0,0,1,6-6.79V7.88a.66.66,0,0,1,.68-.62h3.54a.65.65,0,0,1,.67.62v3.5a7.16,7.16,0,0,1,5,6.13.71.71,0,0,1-.74.74h-3.5a.73.73,0,0,1-.73-.57,2.44,2.44,0,0,0-.59-1.3,2.89,2.89,0,0,0-1.9-.92c-.13,0-.26,0-.4,0h-.17a3.24,3.24,0,0,0-2.2.79,2.2,2.2,0,0,0-.75,1.65c0,1.4,1.41,2.1,4,2.89h0C63.74,22.42,66.42,25.14,66.42,28.86Z"/></g></g></svg>